<svg xmlns="http://www.w3.org/2000/svg" width="79" height="79" fill="none" viewBox="0 0 79 79"><g clip-path="url(#clip0)"><path fill="#C9C8FF" d="M14.107 28.2143H11.2856V31.0357H14.107V28.2143Z"/><path fill="#C9C8FF" d="M25.3928 53.6071H22.5714V56.4286H25.3928V53.6071Z"/><path fill="#C9C8FF" d="M45.1428 40.9107H42.3213V43.7321H45.1428V40.9107Z"/><path fill="#C9C8FF" d="M25.3928 40.9107H22.5714V43.7321H25.3928V40.9107Z"/><path fill="#C9C8FF" d="M38.0892 64.8929H33.8571V73.3571H38.0892V64.8929Z"/><path fill="#C9C8FF" d="M46.5535 35.2678H33.8571V38.0893H40.9106H46.5535V35.2678Z"/><path fill="#C9C8FF" d="M15.5178 16.9286H31.2783C31.8488 16.9284 32.363 16.5847 32.5813 16.0577C32.7996 15.5306 32.679 14.9239 32.2756 14.5205L30.4516 12.6964H6.2268L4.40275 14.5205C3.99941 14.9239 3.87878 15.5306 4.09708 16.0577C4.31538 16.5847 4.82964 16.9284 5.40012 16.9286H9.87491C10.654 16.9286 11.2856 17.5602 11.2856 18.3393C11.2856 19.1184 10.654 19.75 9.87491 19.75H5.64277V73.3571H12.6963V66.3035C11.9172 66.3035 11.2856 65.6719 11.2856 64.8928C11.2856 64.1137 11.9172 63.4821 12.6963 63.4821H23.9821C24.7612 63.4821 25.3928 64.1137 25.3928 64.8928C25.3928 65.6719 24.7612 66.3035 23.9821 66.3035V73.3571H31.0356V19.75H15.5178C14.7387 19.75 14.1071 19.1184 14.1071 18.3393C14.1071 17.5602 14.7387 16.9286 15.5178 16.9286ZM16.9285 57.8393C16.9285 58.6184 16.2969 59.25 15.5178 59.25H9.87491C9.09579 59.25 8.4642 58.6184 8.4642 57.8393V52.1964C8.4642 51.4173 9.09579 50.7857 9.87491 50.7857H15.5178C16.2969 50.7857 16.9285 51.4173 16.9285 52.1964V57.8393ZM16.9285 45.1428C16.9285 45.922 16.2969 46.5535 15.5178 46.5535H9.87491C9.09579 46.5535 8.4642 45.922 8.4642 45.1428V39.5C8.4642 38.7209 9.09579 38.0893 9.87491 38.0893H15.5178C16.2969 38.0893 16.9285 38.7209 16.9285 39.5V45.1428ZM19.7499 26.8036C19.7499 26.0244 20.3815 25.3928 21.1606 25.3928H26.8035C27.5826 25.3928 28.2142 26.0244 28.2142 26.8036V32.4464C28.2142 33.2255 27.5826 33.8571 26.8035 33.8571H21.1606C20.3815 33.8571 19.7499 33.2255 19.7499 32.4464V26.8036ZM19.7499 39.5C19.7499 38.7209 20.3815 38.0893 21.1606 38.0893H26.8035C27.5826 38.0893 28.2142 38.7209 28.2142 39.5V45.1428C28.2142 45.922 27.5826 46.5535 26.8035 46.5535H21.1606C20.3815 46.5535 19.7499 45.922 19.7499 45.1428V39.5ZM19.7499 52.1964C19.7499 51.4173 20.3815 50.7857 21.1606 50.7857H26.8035C27.5826 50.7857 28.2142 51.4173 28.2142 52.1964V57.8393C28.2142 58.6184 27.5826 59.25 26.8035 59.25H21.1606C20.3815 59.25 19.7499 58.6184 19.7499 57.8393V52.1964ZM15.5178 25.3928C16.2969 25.3928 16.9285 26.0244 16.9285 26.8036V32.4464C16.9285 33.2255 16.2969 33.8571 15.5178 33.8571H9.87491C9.09579 33.8571 8.4642 33.2255 8.4642 32.4464V26.8036C8.4642 26.0244 9.09579 25.3928 9.87491 25.3928H15.5178Z"/><path fill="#C9C8FF" d="M18.3392 73.3571H21.1606V66.3036H15.5178V73.3571H18.3392Z"/><path fill="#C9C8FF" d="M25.3928 28.2143H22.5714V31.0357H25.3928V28.2143Z"/><path fill="#C9C8FF" d="M45.1428 46.5536H40.9106C40.1315 46.5536 39.4999 45.922 39.4999 45.1428V40.9107H33.8571V62.0714H40.9106C41.6897 62.0714 42.3213 62.703 42.3213 63.4821C42.3213 64.2612 41.6897 64.8928 40.9106 64.8928V73.3571H45.1428V59.25H40.9106C40.1315 59.25 39.4999 58.6184 39.4999 57.8393V52.1964C39.4999 51.4173 40.1315 50.7857 40.9106 50.7857H45.1428V46.5536Z"/><path fill="#C9C8FF" d="M77.5892 7.05354H70.5356V9.87497H77.5892C78.3683 9.87497 78.9999 9.24337 78.9999 8.46426C78.9999 7.68514 78.3683 7.05354 77.5892 7.05354Z"/><path fill="#C9C8FF" d="M14.107 40.9107H11.2856V43.7321H14.107V40.9107Z"/><path fill="#C9C8FF" d="M45.1428 53.6071H42.3213V56.4286H45.1428V53.6071Z"/><path fill="#C9C8FF" d="M14.107 53.6071H11.2856V56.4286H14.107V53.6071Z"/><path fill="#C9C8FF" d="M67.7142 26.2534L63.152 33.8571H67.7142V26.2534Z"/><path fill="#C9C8FF" d="M62.0714 30.1752L66.6336 22.5714H62.0714V30.1752Z"/><path fill="#C9C8FF" d="M61.5324 36.6786L59.2499 41.2436V42.3214H70.5356V41.2436L68.2531 36.6786H61.5324Z"/><path fill="#C9C8FF" d="M62.0714 8.46428V11.2857V16.068L66.6336 8.46428H62.0714Z"/><path fill="#C9C8FF" d="M67.7142 12.1462L63.152 19.75H67.7142V12.1462Z"/><path fill="#C9C8FF" d="M17.3418 1.5814L14.6911 4.23214H21.9873L19.3366 1.5814C18.7857 1.03069 17.8927 1.03069 17.3418 1.5814Z"/><path fill="#C9C8FF" d="M77.5892 76.1786H1.41062C0.631507 76.1786 -9.15527e-05 76.8102 -9.15527e-05 77.5893C-9.15527e-05 78.3684 0.631507 79 1.41062 79H77.5892C78.3683 79 78.9999 78.3684 78.9999 77.5893C78.9999 76.8102 78.3683 76.1786 77.5892 76.1786Z"/><path fill="#C9C8FF" d="M1.41062 9.87497H59.2499V7.05354H1.41062C0.631507 7.05354 -9.15527e-05 7.68514 -9.15527e-05 8.46426C-9.15527e-05 9.24337 0.631507 9.87497 1.41062 9.87497Z"/><path fill="#C9C8FF" d="M67.7142 4.7019L64.8928 0.940933L62.0714 4.7019V5.64284H67.7142V4.7019Z"/><path fill="#C9C8FF" d="M55.0178 67.7143V73.3571H74.7678V67.7143H71.9463H57.8392H55.0178Z"/><path fill="#C9C8FF" d="M59.2499 52.0836L67.9244 45.1429H59.2499V52.0836Z"/><path fill="#C9C8FF" d="M59.2499 63.3693L67.9244 56.4286H59.2499V63.3693Z"/><path fill="#C9C8FF" d="M70.5356 46.6664L61.8612 53.6071H70.5356V46.6664Z"/><path fill="#C9C8FF" d="M70.5356 64.8928V57.9521L61.8612 64.8928H70.5356Z"/></g><defs><clipPath id="clip0"><rect width="79" height="79" fill="#fff"/></clipPath></defs></svg>