<svg xmlns="http://www.w3.org/2000/svg" width="79" height="79" fill="none" viewBox="0 0 79 79"><path fill="#C9C8FF" d="M34.2325 55.2987C33.8832 55.2974 33.5481 55.1605 33.2977 54.9169C32.7842 54.3994 32.7842 53.5647 33.2977 53.0474L41.5789 44.7662H18.9866L43.4484 69.2279V46.6358L35.1671 54.917C34.9169 55.1605 34.5816 55.2975 34.2325 55.2987Z"/><path fill="#C9C8FF" d="M77.6792 71.0989H76.3627V48.5199L77.4686 48.7042C77.5382 48.7152 77.6088 48.7195 77.6792 48.7173C78.3235 48.7112 78.8715 48.246 78.9826 47.6114C79.0395 47.2655 78.9562 46.9114 78.751 46.6272C78.5459 46.343 78.236 46.1524 77.8898 46.0974L75.3094 45.663L68.4633 44.5307V14.4866C68.4633 6.48828 61.9793 0.00428772 53.981 0.00428772C45.9827 0.00428772 39.4987 6.48828 39.4987 14.4866V16.6589L30.7567 13.2622C30.4519 13.1437 30.1137 13.1437 29.8088 13.2622L12.8513 19.845C12.683 19.9083 12.5303 20.007 12.4037 20.1346L5.74186 26.7175L5.58388 26.8624L0.396654 31.9837C0.145478 32.2264 0.00245529 32.5598 -1.32741e-05 32.9091C-0.00248184 33.2584 0.135758 33.5939 0.383385 33.8401C0.626076 34.0913 0.959486 34.2343 1.30879 34.2368C1.65809 34.2392 1.99351 34.101 2.23974 33.8534L5.2679 30.8647V71.099H1.3182C0.591053 71.099 0.00168387 71.6884 0.00168387 72.4155C0.00168387 73.1427 0.591053 73.732 1.3182 73.732H77.679C78.4062 73.732 78.9955 73.1427 78.9955 72.4155C78.9955 71.6884 78.4062 71.0989 77.6792 71.0989ZM60.5637 17.1198H65.8299V19.7529H60.5637C59.8366 19.7529 59.2472 19.1636 59.2472 18.4364C59.2472 17.7093 59.8366 17.1198 60.5637 17.1198ZM57.9307 23.7025H65.8301V26.3357H57.9307C57.2035 26.3357 56.6142 25.7463 56.6142 25.0192C56.6142 24.292 57.2035 23.7025 57.9307 23.7025ZM64.5134 32.9185C63.7863 32.9185 63.1969 32.329 63.1969 31.602C63.1969 30.875 63.7863 30.2855 64.5134 30.2855H65.8299V32.9187H64.5134V32.9185ZM65.8301 36.8682V39.5014H59.2472C58.52 39.5014 57.9307 38.9119 57.9307 38.1849C57.9307 37.4579 58.52 36.8684 59.2472 36.8684H65.8301V36.8682ZM40.8152 30.2854H44.7649C45.4921 30.2854 46.0814 30.8747 46.0814 31.6019C46.0814 32.329 45.4921 32.9184 44.7649 32.9184H40.8152C40.0881 32.9184 39.4987 32.3289 39.4987 31.6019C39.4987 30.8749 40.0881 30.2854 40.8152 30.2854ZM23.6999 26.3357C23.6999 25.6085 24.2893 25.0192 25.0164 25.0192H35.549C36.2761 25.0192 36.8655 25.6085 36.8655 26.3357V36.8682C36.8655 37.5954 36.2761 38.1848 35.549 38.1848H25.0164C24.2893 38.1848 23.6999 37.5954 23.6999 36.8682V26.3357ZM15.8005 30.2854H19.7502C20.4773 30.2854 21.0667 30.8747 21.0667 31.6019C21.0667 32.329 20.4773 32.9184 19.7502 32.9184H15.8005C15.0733 32.9184 14.484 32.3289 14.484 31.6019C14.484 30.8749 15.0733 30.2854 15.8005 30.2854ZM41.5789 71.0989L17.117 46.6371V69.2294L25.3983 60.9481C25.9145 60.4319 26.7515 60.4319 27.2677 60.9481C27.784 61.4644 27.784 62.3014 27.2677 62.8176L18.9865 71.0989H14.4838L14.484 43.451C14.4821 43.339 14.5 43.2276 14.5366 43.1219C14.54 43.0572 14.558 42.9943 14.5892 42.9375C14.7152 42.6185 14.9678 42.3657 15.287 42.2397C15.3436 42.2085 15.4067 42.1905 15.4714 42.1871C15.5772 42.1504 15.6886 42.1326 15.8005 42.1345H44.7649C44.8769 42.1326 44.9883 42.1505 45.094 42.1871C45.1586 42.1905 45.2216 42.2085 45.2784 42.2397C45.5974 42.3657 45.8501 42.6183 45.9762 42.9375C46.0074 42.9941 46.0254 43.0572 46.0288 43.1219C46.0655 43.2277 46.0833 43.3391 46.0814 43.451L46.0816 71.0989H41.5789ZM42.1319 17.6727V17.1198H55.2975C56.0246 17.1198 56.614 17.7091 56.614 18.4363C56.614 19.1634 56.0246 19.7528 55.2975 19.7528H47.4771L42.1319 17.6727ZM69.7798 63.1995C69.7798 63.9266 69.1904 64.516 68.4633 64.516H59.2473C58.5202 64.516 57.9308 63.9266 57.9308 63.1995V56.6166C57.9308 55.8894 58.5202 55.3001 59.2473 55.3001H68.4633C69.1904 55.3001 69.7798 55.8894 69.7798 56.6166V63.1995ZM71.0449 51.4573C70.9911 52.123 70.4474 52.643 69.7798 52.667C69.7093 52.6692 69.6388 52.6649 69.5692 52.6539L55.2976 50.271V71.099H52.6645V28.3764C52.6623 28.3451 52.6668 28.3138 52.6776 28.2843L55.2975 30.8647V47.5983L69.9904 50.0602C70.6453 50.1911 71.0986 50.7915 71.0449 51.4573Z"/><path fill="#C9C8FF" d="M13.1673 76.3639H1.31821C0.591063 76.3639 0.00169373 76.9533 0.00169373 77.6804C0.00169373 78.4076 0.591063 78.9969 1.31821 78.9969H13.1673C13.8945 78.9969 14.4838 78.4076 14.4838 77.6804C14.4838 76.9533 13.8945 76.3639 13.1673 76.3639Z"/><path fill="#C9C8FF" d="M77.6792 76.3639H18.4337C17.7065 76.3639 17.1172 76.9533 17.1172 77.6804C17.1172 78.4076 17.7065 78.9969 18.4337 78.9969H77.6792C78.4063 78.9969 78.9957 78.4076 78.9957 77.6804C78.9957 76.9533 78.4061 76.3639 77.6792 76.3639Z"/><path fill="#C9C8FF" d="M67.1466 57.9319H60.5637V61.8816H67.1466V57.9319Z"/><path fill="#C9C8FF" d="M34.2325 27.6508H26.3331V35.5502H34.2325V27.6508Z"/></svg>