<svg xmlns="http://www.w3.org/2000/svg" width="15" height="15" fill="none" viewBox="0 0 15 15"><path fill="#9795FF" d="M10.8835 10.8051C10.8117 10.8071 10.74 10.8086 10.6683 10.8098C10.6545 10.8101 10.6407 10.8103 10.6267 10.8106C10.5427 10.8118 10.4587 10.8123 10.375 10.8123C10.291 10.8123 10.2068 10.8116 10.1225 10.8106C10.1113 10.8103 10.0998 10.8101 10.0885 10.8098C10.014 10.8086 9.93975 10.8071 9.86525 10.8048C9.86 10.8048 9.85475 10.8046 9.84975 10.8043C8.13725 10.7538 6.44025 10.4556 5.5 9.9248V10.8126V10.9063V11.0001V11.5228C6.0345 12.0618 7.9005 12.5626 10.375 12.5626C12.552 12.5626 14.2568 12.1748 15 11.7148V11.0001V10.9063V10.8126V10.0523C14.0282 10.5028 12.4742 10.7573 10.9067 10.8043C10.899 10.8046 10.8913 10.8048 10.8835 10.8051Z"/><path fill="#9795FF" d="M5.5 7.67371V8.56246V8.65621V8.74996V9.26846C5.513 9.28146 5.5245 9.29471 5.53925 9.30771C5.55025 9.31771 5.561 9.32771 5.573 9.33771C6.2 9.84996 8.0495 10.3125 10.375 10.3125C12.512 10.3125 14.2463 9.92171 15 9.46121V8.74996V8.65621V8.56246V7.79996C13.9172 8.29996 12.112 8.56246 10.375 8.56246C8.49675 8.56246 6.53775 8.25571 5.5 7.67371Z"/><path fill="#9795FF" d="M5.5 12.1748V13.2501C5.5 13.2876 5.509 13.3236 5.525 13.3556C5.78675 14.4356 8.078 15.0001 10.25 15.0001C12.418 15.0001 14.704 14.4378 14.9738 13.3618C14.9905 13.3283 15 13.2903 15 13.2501V12.3023C13.9185 12.8038 12.115 13.0626 10.375 13.0626C8.49275 13.0626 6.5365 12.7601 5.5 12.1748Z"/><path fill="#9795FF" d="M10.25 4.5625C8.0775 4.5625 5.7775 5.138 5.524 6.2085C5.50925 6.2405 5.5 6.275 5.5 6.3125V6.40625V7.0185C6.03825 7.55725 7.94475 8.0625 10.375 8.0625C12.512 8.0625 14.2463 7.67175 15 7.21125V6.40625V6.3125C15 6.27625 14.991 6.2425 14.9765 6.2115C14.7265 5.139 12.4245 4.5625 10.25 4.5625Z"/><path fill="#9795FF" d="M13.848 0H1.152C0.51675 0 0 0.51675 0 1.152V4.09775C0 4.34125 0.0785 4.565 0.20875 4.75H6.21275C7.20625 4.29875 8.6965 4.0625 10.136 4.0625C11.5755 4.0625 13.0655 4.299 14.059 4.75H14.791C14.9215 4.565 15 4.34125 15 4.098V1.152C15 0.51675 14.4832 0 13.848 0ZM2.625 3.75C2.00475 3.75 1.5 3.24525 1.5 2.625C1.5 2.00475 2.00475 1.5 2.625 1.5C3.24525 1.5 3.75 2.00475 3.75 2.625C3.75 3.24525 3.24525 3.75 2.625 3.75ZM8.5 2.5C8.362 2.5 8.25 2.388 8.25 2.25C8.25 2.112 8.362 2 8.5 2C8.638 2 8.75 2.112 8.75 2.25C8.75 2.388 8.638 2.5 8.5 2.5ZM9 3.25C8.862 3.25 8.75 3.138 8.75 3C8.75 2.862 8.862 2.75 9 2.75C9.138 2.75 9.25 2.862 9.25 3C9.25 3.138 9.138 3.25 9 3.25ZM9.5 2.5C9.362 2.5 9.25 2.388 9.25 2.25C9.25 2.112 9.362 2 9.5 2C9.638 2 9.75 2.112 9.75 2.25C9.75 2.388 9.638 2.5 9.5 2.5ZM10 3.25C9.862 3.25 9.75 3.138 9.75 3C9.75 2.862 9.862 2.75 10 2.75C10.138 2.75 10.25 2.862 10.25 3C10.25 3.138 10.138 3.25 10 3.25ZM10.5 2.5C10.362 2.5 10.25 2.388 10.25 2.25C10.25 2.112 10.362 2 10.5 2C10.638 2 10.75 2.112 10.75 2.25C10.75 2.388 10.638 2.5 10.5 2.5ZM11 3.25C10.862 3.25 10.75 3.138 10.75 3C10.75 2.862 10.862 2.75 11 2.75C11.138 2.75 11.25 2.862 11.25 3C11.25 3.138 11.138 3.25 11 3.25ZM11.5 2.5C11.362 2.5 11.25 2.388 11.25 2.25C11.25 2.112 11.362 2 11.5 2C11.638 2 11.75 2.112 11.75 2.25C11.75 2.388 11.638 2.5 11.5 2.5ZM12 3.25C11.862 3.25 11.75 3.138 11.75 3C11.75 2.862 11.862 2.75 12 2.75C12.138 2.75 12.25 2.862 12.25 3C12.25 3.138 12.138 3.25 12 3.25ZM12.5 2.5C12.362 2.5 12.25 2.388 12.25 2.25C12.25 2.112 12.362 2 12.5 2C12.638 2 12.75 2.112 12.75 2.25C12.75 2.388 12.638 2.5 12.5 2.5ZM13 3.25C12.862 3.25 12.75 3.138 12.75 3C12.75 2.862 12.862 2.75 13 2.75C13.138 2.75 13.25 2.862 13.25 3C13.25 3.138 13.138 3.25 13 3.25Z"/><path fill="#9795FF" d="M5 9.5C5 9.461 5 8.75 5 8.75V8.65625V8.5625V7.67375V7.0185V6.40625V6.3125C5 6.275 5.00925 6.2405 5.024 6.2085C5.11525 5.82325 5.47425 5.50325 5.99425 5.25H0.20875C0.0785 5.435 0 5.65875 0 5.902V8.84775C0 9.09125 0.0785 9.315 0.20875 9.5H5ZM2.625 6.25C3.24525 6.25 3.75 6.75475 3.75 7.375C3.75 7.99525 3.24525 8.5 2.625 8.5C2.00475 8.5 1.5 7.99525 1.5 7.375C1.5 6.75475 2.00475 6.25 2.625 6.25Z"/><path fill="#9795FF" d="M5.6795 14.1423C5.333 13.9215 5.0985 13.659 5.025 13.3555C5.009 13.3235 5 13.2875 5 13.25V12.1748V11.523V11V10.9062V10.8125V10H0.20875C0.0785 10.185 0 10.4088 0 10.652V13.5977C0 14.2342 0.51575 14.75 1.152 14.75H5.51925C5.522 14.75 5.5245 14.75 5.52725 14.75C5.844 14.7455 5.9465 14.3123 5.6795 14.1423ZM2.625 13.25C2.00475 13.25 1.5 12.7452 1.5 12.125C1.5 11.5048 2.00475 11 2.625 11C3.24525 11 3.75 11.5048 3.75 12.125C3.75 12.7452 3.24525 13.25 2.625 13.25Z"/></svg>