<svg xmlns="http://www.w3.org/2000/svg" width="96" height="26" fill="none" viewBox="0 0 96 26"><path fill="#fff" d="M4.47916 26.0001C3.31249 26.0001 2.32083 25.5918 1.50416 24.7751C0.687494 23.9585 0.27916 22.9668 0.27916 21.8001V5.00012C0.27916 3.83345 0.687494 2.84179 1.50416 2.02512C2.32083 1.20845 3.31249 0.800121 4.47916 0.800121H21.2792C22.4458 0.800121 23.4375 1.20845 24.2542 2.02512C25.0708 2.84179 25.4792 3.83345 25.4792 5.00012V21.8001C25.4792 22.9668 25.0708 23.9585 24.2542 24.7751C23.4375 25.5918 22.4458 26.0001 21.2792 26.0001H4.47916ZM4.47916 23.1651H21.2792C21.6525 23.1651 21.9675 23.0368 22.2242 22.7801C22.5042 22.5001 22.6442 22.1735 22.6442 21.8001V5.00012C22.6442 4.62679 22.5042 4.31179 22.2242 4.05512C21.9675 3.77512 21.6525 3.63512 21.2792 3.63512H4.47916C4.10583 3.63512 3.77916 3.77512 3.49916 4.05512C3.24249 4.31179 3.11416 4.62679 3.11416 5.00012V21.8001C3.11416 22.1735 3.24249 22.5001 3.49916 22.7801C3.77916 23.0368 4.10583 23.1651 4.47916 23.1651ZM37.1615 26.0001L27.9915 0.800121H31.0015L38.3865 21.0301L45.7365 0.800121H49.1665L56.5515 21.0301L63.8665 0.800121H66.9465L57.7765 26.0001H55.2915L47.4515 4.47512L39.6115 26.0001H37.1615ZM74.3564 26.0001C73.1897 26.0001 72.1981 25.5918 71.3814 24.7751C70.5647 23.9585 70.1564 22.9668 70.1564 21.8001V20.8201H72.9914V21.8001C72.9914 22.1735 73.1197 22.5001 73.3764 22.7801C73.6564 23.0368 73.9831 23.1651 74.3564 23.1651H91.1564C91.5297 23.1651 91.8447 23.0368 92.1014 22.7801C92.3814 22.5001 92.5214 22.1735 92.5214 21.8001V16.1651C92.5214 15.7918 92.3814 15.4768 92.1014 15.2201C91.8447 14.9635 91.5297 14.8351 91.1564 14.8351H74.3564C73.1897 14.8351 72.1981 14.4268 71.3814 13.6101C70.5647 12.7701 70.1564 11.7785 70.1564 10.6351V5.00012C70.1564 3.83345 70.5647 2.84179 71.3814 2.02512C72.1981 1.20845 73.1897 0.800121 74.3564 0.800121H91.1564C92.3231 0.800121 93.3147 1.20845 94.1314 2.02512C94.9481 2.84179 95.3564 3.83345 95.3564 5.00012V5.98012H92.5214V5.00012C92.5214 4.62679 92.3814 4.31179 92.1014 4.05512C91.8447 3.77512 91.5297 3.63512 91.1564 3.63512H74.3564C73.9831 3.63512 73.6564 3.77512 73.3764 4.05512C73.1197 4.31179 72.9914 4.62679 72.9914 5.00012V10.6351C72.9914 11.0085 73.1197 11.3235 73.3764 11.5801C73.6564 11.8368 73.9831 11.9651 74.3564 11.9651H91.1564C92.3231 11.9651 93.3147 12.3851 94.1314 13.2251C94.9481 14.0418 95.3564 15.0218 95.3564 16.1651V21.8001C95.3564 22.9668 94.9481 23.9585 94.1314 24.7751C93.3147 25.5918 92.3231 26.0001 91.1564 26.0001H74.3564Z"/></svg>