<svg xmlns="http://www.w3.org/2000/svg" width="15" height="15" fill="none" viewBox="0 0 15 15"><path fill="#fff" d="M15 7.5C15 3.36464 11.6354 0 7.5 0C3.36464 0 0 3.36464 0 7.5C0 9.68427 0.939273 11.6531 2.43436 13.0249L2.42727 13.0312L2.67055 13.2363C2.68636 13.2496 2.70355 13.2605 2.71936 13.2736C2.84864 13.3808 2.98255 13.4825 3.11891 13.581C3.16309 13.6129 3.20727 13.6448 3.25227 13.6759C3.39791 13.7763 3.54736 13.8715 3.70009 13.9617C3.73336 13.9814 3.76691 14.0005 3.80045 14.0195C3.96764 14.1147 4.13836 14.2045 4.31318 14.2868C4.326 14.2928 4.33909 14.2983 4.35191 14.3043C4.92164 14.5691 5.52982 14.7635 6.16582 14.8784C6.18245 14.8814 6.19909 14.8844 6.216 14.8874C6.41345 14.9215 6.61309 14.9487 6.81518 14.967C6.83973 14.9692 6.86427 14.9705 6.88909 14.9727C7.09036 14.9894 7.29382 15 7.5 15C7.70427 15 7.90582 14.9894 8.106 14.9733C8.13136 14.9711 8.15673 14.9697 8.18209 14.9675C8.38255 14.9493 8.58055 14.9228 8.77609 14.8893C8.793 14.8863 8.81018 14.8833 8.82709 14.88C9.45355 14.7676 10.053 14.5775 10.6154 14.3195C10.6361 14.31 10.6571 14.301 10.6778 14.2912C10.8461 14.2121 11.0105 14.1267 11.1717 14.0359C11.2118 14.0133 11.2516 13.9904 11.2915 13.9669C11.4382 13.8805 11.5825 13.7902 11.7226 13.6942C11.7731 13.6598 11.8225 13.6235 11.8724 13.5875C11.9921 13.5014 12.1096 13.4125 12.2239 13.3195C12.2493 13.299 12.2765 13.2813 12.3014 13.2603L12.5509 13.0519L12.5435 13.0456C14.0517 11.6733 15 9.69545 15 7.5ZM0.545455 7.5C0.545455 3.66518 3.66518 0.545455 7.5 0.545455C11.3348 0.545455 14.4545 3.66518 14.4545 7.5C14.4545 9.56645 13.5477 11.4243 12.1121 12.699C12.0319 12.6436 11.9512 12.594 11.8685 12.5525L9.55936 11.3981C9.35209 11.2945 9.22336 11.0861 9.22336 10.8545V10.0481C9.27682 9.98209 9.33327 9.90736 9.39164 9.82527C9.69055 9.40309 9.93027 8.93345 10.1051 8.42809C10.4506 8.26391 10.6737 7.91973 10.6737 7.53109V6.56427C10.6737 6.32782 10.587 6.09845 10.4318 5.91818V4.64536C10.446 4.50355 10.4962 3.705 9.91827 3.04609C9.41564 2.47227 8.60209 2.18182 7.5 2.18182C6.39791 2.18182 5.58436 2.47227 5.08173 3.04582C4.50382 3.70473 4.554 4.50382 4.56818 4.64509V5.91791C4.41327 6.09818 4.32627 6.32755 4.32627 6.564V7.53082C4.32627 7.83109 4.461 8.11118 4.69173 8.30018C4.91264 9.16555 5.36727 9.82064 5.53527 10.0426V10.8319C5.53527 11.0545 5.41391 11.259 5.21836 11.3659L3.06191 12.5422C2.99318 12.5795 2.925 12.6232 2.85682 12.672C1.43891 11.3978 0.545455 9.55145 0.545455 7.5Z"/></svg>