<svg xmlns="http://www.w3.org/2000/svg" width="15" height="15" fill="none" viewBox="0 0 15 15"><g clip-path="url(#clip0)"><path fill="#9795FF" d="M13.7535 11.3472L11.3652 10.1532C11.14 10.0405 11 9.814 11 9.562V8.71675C11.0572 8.64675 11.1175 8.567 11.1797 8.479C11.4895 8.0415 11.7377 7.5545 11.9182 7.02925C12.271 6.8675 12.5 6.51875 12.5 6.125V5.125C12.5 4.88425 12.41 4.651 12.25 4.46875V3.139C12.264 3.0015 12.319 2.183 11.727 1.50775C11.2135 0.922 10.3802 0.625 9.24999 0.625C8.11974 0.625 7.28649 0.922 6.77299 1.5075C6.18099 2.18275 6.23599 3.0015 6.24999 3.13875V4.4685C6.08999 4.65075 5.99999 4.884 5.99999 5.12475V6.12475C5.99999 6.429 6.13824 6.71275 6.37424 6.902C6.60324 7.80875 7.08249 8.492 7.24999 8.71125V9.5385C7.24999 9.7805 7.11799 10.0025 6.90574 10.1185L4.67549 11.335C3.95049 11.7305 3.50024 12.489 3.50024 13.315V14.375H15.0002V13.3643C15 12.5048 14.5222 11.7317 13.7535 11.3472Z"/><path fill="#9795FF" d="M4.49575 11.0063L6.726 9.78975C6.81775 9.7395 6.875 9.64325 6.875 9.53875V8.83525C6.65375 8.52725 6.2635 7.90725 6.04075 7.10775C5.775 6.84975 5.625 6.4985 5.625 6.125V5.125C5.625 4.844 5.713 4.57025 5.875 4.33975V3.1565C5.8665 3.06075 5.8565 2.83925 5.899 2.55775C5.55475 2.43775 5.17175 2.375 4.75 2.375C2.15275 2.375 2.0015 4.58875 2 4.625V5.76975C1.838 5.94625 1.75 6.15 1.75 6.35225V7.21575C1.75 7.4855 1.87075 7.737 2.07775 7.907C2.284 8.6845 2.79125 9.272 2.98875 9.47825V10.164C2.98875 10.3607 2.88175 10.5413 2.696 10.6427L1.03275 11.686C0.39575 12.0335 0 12.7002 0 13.4257V14.375H3.125V13.3155C3.125 12.3523 3.65025 11.4675 4.49575 11.0063Z"/></g><defs><clipPath id="clip0"><rect width="15" height="15" fill="#fff"/></clipPath></defs></svg>