<svg xmlns="http://www.w3.org/2000/svg" width="15" height="15" fill="none" viewBox="0 0 15 15"><path fill="#9795FF" d="M14.25 0C13.8365 0 13.5 0.336504 13.5 0.75V3.50001H12.75V1.5675C12.75 1.25449 12.4953 0.99999 12.1825 0.99999H10.3175C10.0047 0.99999 9.74997 1.25449 9.74997 1.5675V3.50001H8.99997V1.5675C8.99997 1.25449 8.74523 0.99999 8.43246 0.99999H6.56745C6.25471 0.99999 5.99994 1.25449 5.99994 1.5675V3.50001H5.24994V1.5675C5.24994 1.25449 4.9952 0.99999 4.68243 0.99999H2.81751C2.50477 0.99999 2.25 1.25449 2.25 1.5675V3.50001H1.5V0.75C1.5 0.336504 1.1635 0 0.75 0C0.336504 0 0 0.336504 0 0.75V15H1.5V13.5H2.25H5.25H6H9H9.75H12.75H13.5V15H15V0.75C15 0.336504 14.6635 0 14.25 0ZM13.5 13H12.75V11.0675C12.75 10.7545 12.4953 10.5 12.1825 10.5H10.3175C10.0047 10.5 9.74997 10.7545 9.74997 11.0675V13H8.99997V11.0675C8.99997 10.7545 8.74523 10.5 8.43246 10.5H6.56745C6.25471 10.5 5.99994 10.7545 5.99994 11.0675V13H5.24994V11.0675C5.24994 10.7545 4.9952 10.5 4.68243 10.5H2.81751C2.50477 10.5 2.25 10.7545 2.25 11.0675V13H1.5V8.75001H2.25H5.25H6H9H9.75H12.75H13.5V13ZM13.5 8.25H12.75V6.31749C12.75 6.00448 12.4953 5.74998 12.1825 5.74998H10.3175C10.0047 5.74998 9.74997 6.00448 9.74997 6.31749V8.25H8.99997V6.31749C8.99997 6.00448 8.74523 5.74998 8.43246 5.74998H6.56745C6.25471 5.74998 5.99994 6.00448 5.99994 6.31749V8.25H5.24994V6.31749C5.24994 6.00448 4.9952 5.74998 4.68243 5.74998H2.81751C2.50477 5.74998 2.25 6.00448 2.25 6.31749V8.25H1.5V3.99999H2.25H5.25H6H9H9.75H12.75H13.5V8.25Z"/></svg>