<svg xmlns="http://www.w3.org/2000/svg" width="15" height="15" fill="none" viewBox="0 0 15 15"><path fill="#9795FF" d="M6.375 1.75H8.625C8.76325 1.75 8.875 1.63825 8.875 1.5V0.25C8.875 0.11175 8.76325 0 8.625 0H6.375C6.23675 0 6.125 0.11175 6.125 0.25V1.5C6.125 1.63825 6.23675 1.75 6.375 1.75Z"/><path fill="#9795FF" d="M9.625 0.5C9.48675 0.5 9.375 0.61175 9.375 0.75C9.375 0.88825 9.48675 1 9.625 1H13.125V14.5H1.875V1H5.375C5.51325 1 5.625 0.88825 5.625 0.75C5.625 0.61175 5.51325 0.5 5.375 0.5H1.375V15H13.625V0.5H9.625Z"/><path fill="#9795FF" d="M2.125 1.25V14.25H12.875V1.25H10.125V2H4.875V1.25H2.125ZM7.125 12H3.875C3.73675 12 3.625 11.8883 3.625 11.75C3.625 11.6117 3.73675 11.5 3.875 11.5H7.125C7.26325 11.5 7.375 11.6117 7.375 11.75C7.375 11.8883 7.26325 12 7.125 12ZM11.125 10.5H3.875C3.73675 10.5 3.625 10.3883 3.625 10.25C3.625 10.1117 3.73675 10 3.875 10H11.125C11.2633 10 11.375 10.1117 11.375 10.25C11.375 10.3883 11.2633 10.5 11.125 10.5ZM11.125 8.75H3.875C3.73675 8.75 3.625 8.63825 3.625 8.5C3.625 8.36175 3.73675 8.25 3.875 8.25H11.125C11.2633 8.25 11.375 8.36175 11.375 8.5C11.375 8.63825 11.2633 8.75 11.125 8.75ZM3.625 7C3.625 6.86175 3.73675 6.75 3.875 6.75H7.375C7.51325 6.75 7.625 6.86175 7.625 7C7.625 7.13825 7.51325 7.25 7.375 7.25H3.875C3.73675 7.25 3.625 7.13825 3.625 7ZM8.125 7C8.125 6.93225 8.15 6.86975 8.1975 6.8225C8.2925 6.7275 8.4575 6.73 8.5525 6.8225C8.59975 6.86975 8.625 6.93225 8.625 7C8.625 7.0675 8.5975 7.13 8.5525 7.1775C8.505 7.2225 8.4425 7.25 8.375 7.25C8.30725 7.25 8.24475 7.22475 8.1975 7.1775C8.15225 7.13 8.125 7.065 8.125 7ZM11.125 7.25H9.375C9.23675 7.25 9.125 7.13825 9.125 7C9.125 6.86175 9.23675 6.75 9.375 6.75H11.125C11.2633 6.75 11.375 6.86175 11.375 7C11.375 7.13825 11.2633 7.25 11.125 7.25ZM11.125 5.25C11.2633 5.25 11.375 5.36175 11.375 5.5C11.375 5.63825 11.2633 5.75 11.125 5.75H3.875C3.73675 5.75 3.625 5.63825 3.625 5.5C3.625 5.36175 3.73675 5.25 3.875 5.25H11.125ZM7.125 3.75C7.26325 3.75 7.375 3.86175 7.375 4C7.375 4.13825 7.26325 4.25 7.125 4.25H3.875C3.73675 4.25 3.625 4.13825 3.625 4C3.625 3.86175 3.73675 3.75 3.875 3.75H7.125Z"/></svg>