<svg xmlns="http://www.w3.org/2000/svg" width="20" height="20" fill="none" viewBox="0 0 20 20"><g clip-path="url(#clip0)"><path fill="#fff" d="M10 3.75599C10.1407 3.75599 10.2756 3.69918 10.375 3.59806C10.4745 3.49694 10.5303 3.35978 10.5303 3.21677V1.32413C10.5303 1.18112 10.4745 1.04397 10.375 0.942845C10.2756 0.841722 10.1407 0.784912 10 0.784912C9.85938 0.784912 9.7245 0.841722 9.62505 0.942845C9.5256 1.04397 9.46973 1.18112 9.46973 1.32413V3.21677C9.46973 3.35978 9.5256 3.49694 9.62505 3.59806C9.7245 3.69918 9.85938 3.75599 10 3.75599Z"/><path fill="#fff" d="M10 16.2441C9.85938 16.2441 9.7245 16.301 9.62505 16.4021C9.5256 16.5032 9.46973 16.6403 9.46973 16.7834V18.676C9.46973 18.819 9.5256 18.9562 9.62505 19.0573C9.7245 19.1584 9.85938 19.2152 10 19.2152C10.1407 19.2152 10.2756 19.1584 10.375 19.0573C10.4745 18.9562 10.5303 18.819 10.5303 18.676V16.7834C10.5303 16.6403 10.4745 16.5032 10.375 16.4021C10.2756 16.301 10.1407 16.2441 10 16.2441Z"/><path fill="#fff" d="M4.90922 5.5839C5.01067 5.67223 5.14116 5.71839 5.27462 5.71315C5.40809 5.70791 5.53469 5.65165 5.62914 5.55562C5.72358 5.45959 5.77891 5.33086 5.78406 5.19515C5.78922 5.05944 5.74382 4.92676 5.65694 4.8236L4.34179 3.48635C4.24035 3.39801 4.10985 3.35185 3.97639 3.35709C3.84292 3.36233 3.71632 3.41859 3.62188 3.51462C3.52743 3.61065 3.4721 3.73939 3.46695 3.87509C3.46179 4.0108 3.50719 4.14349 3.59407 4.24664L4.90922 5.5839Z"/><path fill="#fff" d="M15.0908 14.4163C14.9894 14.3279 14.8589 14.2818 14.7254 14.287C14.5919 14.2923 14.4653 14.3485 14.3709 14.4446C14.2765 14.5406 14.2211 14.6693 14.216 14.805C14.2108 14.9407 14.2562 15.0734 14.3431 15.1766L15.6582 16.5138C15.7597 16.6022 15.8902 16.6483 16.0236 16.6431C16.1571 16.6378 16.2837 16.5816 16.3782 16.4856C16.4726 16.3895 16.5279 16.2608 16.5331 16.1251C16.5382 15.9894 16.4928 15.8567 16.406 15.7535L15.0908 14.4163Z"/><path fill="#fff" d="M3.85922 10.0002C3.85922 9.85714 3.80335 9.71999 3.7039 9.61887C3.60445 9.51775 3.46956 9.46094 3.32892 9.46094H1.46756C1.32691 9.46094 1.19203 9.51775 1.09258 9.61887C0.993127 9.71999 0.937256 9.85714 0.937256 10.0002C0.937256 10.1432 0.993127 10.2803 1.09258 10.3814C1.19203 10.4826 1.32691 10.5394 1.46756 10.5394H3.32892C3.46956 10.5394 3.60445 10.4826 3.7039 10.3814C3.80335 10.2803 3.85922 10.1432 3.85922 10.0002Z"/><path fill="#fff" d="M18.5325 9.46094H16.6712C16.5305 9.46094 16.3956 9.51775 16.2962 9.61887C16.1967 9.71999 16.1409 9.85714 16.1409 10.0002C16.1409 10.1432 16.1967 10.2803 16.2962 10.3814C16.3956 10.4826 16.5305 10.5394 16.6712 10.5394H18.5325C18.6732 10.5394 18.8081 10.4826 18.9075 10.3814C19.007 10.2803 19.0628 10.1432 19.0628 10.0002C19.0628 9.85714 19.007 9.71999 18.9075 9.61887C18.8081 9.51775 18.6732 9.46094 18.5325 9.46094Z"/><path fill="#fff" d="M4.90922 14.4163L3.59407 15.7535C3.50719 15.8567 3.46179 15.9894 3.46695 16.1251C3.4721 16.2608 3.52743 16.3895 3.62188 16.4856C3.71632 16.5816 3.84292 16.6378 3.97639 16.6431C4.10985 16.6483 4.24035 16.6022 4.34179 16.5138L5.65694 15.1766C5.74382 15.0734 5.78922 14.9407 5.78406 14.805C5.77891 14.6693 5.72358 14.5406 5.62914 14.4446C5.53469 14.3485 5.40809 14.2923 5.27462 14.287C5.14116 14.2818 5.01067 14.3279 4.90922 14.4163Z"/><path fill="#fff" d="M15.0908 5.5839L16.406 4.24664C16.4928 4.14349 16.5382 4.0108 16.5331 3.87509C16.5279 3.73939 16.4726 3.61065 16.3782 3.51462C16.2837 3.41859 16.1571 3.36233 16.0236 3.35709C15.8902 3.35185 15.7597 3.39801 15.6582 3.48635L14.3431 4.8236C14.2562 4.92676 14.2108 5.05944 14.216 5.19515C14.2211 5.33086 14.2765 5.45959 14.3709 5.55562C14.4653 5.65165 14.5919 5.70791 14.7254 5.71315C14.8589 5.71839 14.9894 5.67223 15.0908 5.5839Z"/><path fill="#fff" d="M10 15.3922C12.9288 15.3922 15.3031 12.9781 15.3031 10.0001C15.3031 7.02206 12.9288 4.60791 10 4.60791C7.07126 4.60791 4.69702 7.02206 4.69702 10.0001C4.69702 12.9781 7.07126 15.3922 10 15.3922Z"/></g><defs><clipPath id="clip0"><rect width="19.091" height="19.412" fill="#fff" transform="translate(0.45459 0.294189)"/></clipPath></defs></svg>