<svg xmlns="http://www.w3.org/2000/svg" width="40" height="40" fill="none" viewBox="0 0 40 40"><path fill="#fff" d="M40 5V35H0V5H10.7227L13.2227 2.5H26.7773L29.2773 5H40ZM37.5 7.5H28.2227L25.7227 5H14.2773L11.7773 7.5H2.5V32.5H37.5V7.5ZM20 10C21.3802 10 22.6758 10.2604 23.8867 10.7812C25.0977 11.3021 26.1589 12.0117 27.0703 12.9102C27.9818 13.8086 28.6979 14.8698 29.2188 16.0938C29.7396 17.3177 30 18.6198 30 20C30 21.3802 29.7396 22.6758 29.2188 23.8867C28.6979 25.0977 27.9883 26.1589 27.0898 27.0703C26.1914 27.9818 25.1302 28.6979 23.9062 29.2188C22.6823 29.7396 21.3802 30 20 30C18.6198 30 17.3242 29.7396 16.1133 29.2188C14.9023 28.6979 13.8411 27.9883 12.9297 27.0898C12.0182 26.1914 11.3021 25.1302 10.7812 23.9062C10.2604 22.6823 10 21.3802 10 20C10 18.6198 10.2604 17.3242 10.7812 16.1133C11.3021 14.9023 12.0117 13.8411 12.9102 12.9297C13.8086 12.0182 14.8698 11.3021 16.0938 10.7812C17.3177 10.2604 18.6198 10 20 10ZM20 27.5C21.0286 27.5 21.9987 27.3047 22.9102 26.9141C23.8216 26.5234 24.6159 25.9831 25.293 25.293C25.9701 24.6029 26.5039 23.8086 26.8945 22.9102C27.2852 22.0117 27.487 21.0417 27.5 20C27.5 18.9714 27.3047 18.0013 26.9141 17.0898C26.5234 16.1784 25.9831 15.3841 25.293 14.707C24.6029 14.0299 23.8086 13.4961 22.9102 13.1055C22.0117 12.7148 21.0417 12.513 20 12.5C18.9714 12.5 18.0013 12.6953 17.0898 13.0859C16.1784 13.4766 15.3841 14.0169 14.707 14.707C14.0299 15.3971 13.4961 16.1914 13.1055 17.0898C12.7148 17.9883 12.513 18.9583 12.5 20C12.5 21.0286 12.6953 21.9987 13.0859 22.9102C13.4766 23.8216 14.0169 24.6159 14.707 25.293C15.3971 25.9701 16.1914 26.5039 17.0898 26.8945C17.9883 27.2852 18.9583 27.487 20 27.5ZM6.25 10C6.58854 10 6.88151 10.1237 7.12891 10.3711C7.3763 10.6185 7.5 10.9115 7.5 11.25C7.5 11.5885 7.3763 11.8815 7.12891 12.1289C6.88151 12.3763 6.58854 12.5 6.25 12.5C5.91146 12.5 5.61849 12.3763 5.37109 12.1289C5.1237 11.8815 5 11.5885 5 11.25C5 10.9115 5.1237 10.6185 5.37109 10.3711C5.61849 10.1237 5.91146 10 6.25 10Z"/></svg>