<svg xmlns="http://www.w3.org/2000/svg" width="13" height="15" fill="none" viewBox="0 0 13 15"><path fill="#0DFF16" d="M10.5 3.25V0H0.5V13H1.25V0.75H8L10.5 3.25Z"/><path fill="#0DFF16" d="M12.4268 14.5732L9.3715 11.518C9.8065 11.003 10.0702 10.3387 10.0702 9.61325C10.0702 7.98275 8.74375 6.65625 7.11325 6.65625C5.48275 6.65625 4.15625 7.98275 4.15625 9.61325C4.15625 11.2437 5.48275 12.5702 7.11325 12.5702C7.83875 12.5702 8.503 12.3065 9.018 11.8715L12.0732 14.9268C12.122 14.9755 12.186 15 12.25 15C12.314 15 12.378 14.9755 12.4268 14.9268C12.5245 14.829 12.5245 14.671 12.4268 14.5732ZM4.65625 9.61325C4.65625 8.2585 5.7585 7.15625 7.11325 7.15625C8.468 7.15625 9.57025 8.2585 9.57025 9.61325C9.57025 10.968 8.468 12.0702 7.11325 12.0702C5.7585 12.0702 4.65625 10.968 4.65625 9.61325Z"/><path fill="#0DFF16" d="M8.5 10H5.75C5.61175 10 5.5 10.1118 5.5 10.25C5.5 10.3882 5.61175 10.5 5.75 10.5H8.5C8.63825 10.5 8.75 10.3882 8.75 10.25C8.75 10.1118 8.63825 10 8.5 10Z"/><path fill="#0DFF16" d="M5.75 9H7.25C7.38825 9 7.5 8.88825 7.5 8.75C7.5 8.61175 7.38825 8.5 7.25 8.5H5.75C5.61175 8.5 5.5 8.61175 5.5 8.75C5.5 8.88825 5.61175 9 5.75 9Z"/><path fill="#0DFF16" d="M7.11325 13.0702C5.207 13.0702 3.65625 11.5195 3.65625 9.61325C3.65625 7.707 5.207 6.15625 7.11325 6.15625C9.0195 6.15625 10.5702 7.707 10.5702 9.61325C10.5702 10.2952 10.369 10.93 10.0267 11.4663L11.75 13.1895V5.1465L7.8535 1.25H1.75V14.25H10.6895L8.96625 12.5267C8.43 12.8692 7.79525 13.0702 7.11325 13.0702ZM7.5 1.822C7.5 1.7955 7.53225 1.782 7.551 1.801L11.199 5.44925C11.2178 5.468 11.2045 5.5 11.178 5.5H7.5V1.822Z"/></svg>