<svg xmlns="http://www.w3.org/2000/svg" width="17" height="17" fill="none" viewBox="0 0 17 17"><g clip-path="url(#clip0)"><path fill="#fff" d="M10.0575 8.51389L16.6769 1.89423C17.1077 1.46365 17.1077 0.767463 16.6769 0.336881C16.2464 -0.0936997 15.5502 -0.0936997 15.1196 0.336881L8.49992 6.95654L1.88044 0.336881C1.44966 -0.0936997 0.75367 -0.0936997 0.323088 0.336881C-0.107696 0.767463 -0.107696 1.46365 0.323088 1.89423L6.94256 8.51389L0.323088 15.1335C-0.107696 15.5641 -0.107696 16.2603 0.323088 16.6909C0.537673 16.9057 0.819821 17.0136 1.10177 17.0136C1.38371 17.0136 1.66566 16.9057 1.88044 16.6909L8.49992 10.0712L15.1196 16.6909C15.3344 16.9057 15.6163 17.0136 15.8983 17.0136C16.1802 17.0136 16.4622 16.9057 16.6769 16.6909C17.1077 16.2603 17.1077 15.5641 16.6769 15.1335L10.0575 8.51389Z"/></g><defs><clipPath id="clip0"><rect width="17" height="17" fill="#fff"/></clipPath></defs></svg>