<svg xmlns="http://www.w3.org/2000/svg" width="15" height="15" fill="none" viewBox="0 0 15 15"><path fill="#9795FF" d="M14.3725 6.75H13.5V4.933C13.5 4.5565 13.1935 4.25 12.817 4.25H12.5V3.6465V0H2.5V0.5H2.25H2H1.75V1H1.5H1V1.5V2.5H0.683C0.3065 2.5 0 2.8065 0 3.183V14.4905L0.0145 14.491C0.034 14.5828 0.073 14.6707 0.13225 14.7483C0.2545 14.9085 0.44 15 0.64125 15H11.831C12.12 15 12.3745 14.8053 12.4435 14.5468L15 7.53725V7.493C15 7.0625 14.736 6.75 14.3725 6.75ZM4.5 1.25H7C7.138 1.25 7.25 1.36175 7.25 1.5C7.25 1.63825 7.138 1.75 7 1.75H4.5C4.362 1.75 4.25 1.63825 4.25 1.5C4.25 1.36175 4.362 1.25 4.5 1.25ZM4.5 3H10.5C10.638 3 10.75 3.11175 10.75 3.25C10.75 3.38825 10.638 3.5 10.5 3.5H4.5C4.362 3.5 4.25 3.38825 4.25 3.25C4.25 3.11175 4.362 3 4.5 3ZM4.5 4.75H10.5C10.638 4.75 10.75 4.86175 10.75 5C10.75 5.13825 10.638 5.25 10.5 5.25H4.5C4.362 5.25 4.25 5.13825 4.25 5C4.25 4.86175 4.362 4.75 4.5 4.75ZM0.5 12.8815V3.183C0.5 3.082 0.58225 3 0.683 3H1V11.5103L0.5 12.8815ZM1.5 1.5H1.75V9.45325L1.5 10.139V1.5ZM13 6.75H11.75H3.18275C2.89375 6.75 2.63925 6.94475 2.57025 7.20325L2.25 8.082V1H2.5V2.5V3V6.25V6.5H12.5V6.25V4.75H12.817C12.9178 4.75 13 4.832 13 4.933V6.75Z"/></svg>