<svg xmlns="http://www.w3.org/2000/svg" width="20" height="20" fill="none" viewBox="0 0 20 20"><g clip-path="url(#clip0)"><path fill="#fff" d="M0.625763 9.375H8.54248C8.88748 9.375 9.16748 9.095 9.16748 8.75C9.16748 8.405 8.88748 8.125 8.54248 8.125H0.625763C0.280762 8.125 0.000762939 8.405 0.000762939 8.75C0.000762939 9.095 0.280762 9.375 0.625763 9.375Z"/><path fill="#fff" d="M3.75064 12.4999C3.91071 12.4999 4.07062 12.439 4.19238 12.3166C4.43652 12.0723 4.43652 11.6765 4.19238 11.4324L1.50897 8.74912L4.19238 6.06662C4.43652 5.82233 4.43652 5.42651 4.19238 5.18237C3.94824 4.93823 3.55243 4.93823 3.30814 5.18237L0.183136 8.30737C-0.0610046 8.55151 -0.0610046 8.94733 0.183136 9.19162L3.30814 12.3166C3.43066 12.439 3.59073 12.4999 3.75064 12.4999Z"/><path fill="#fff" d="M13.3331 20.0002C12.4139 20.0002 11.6665 19.2527 11.6665 18.3335V3.33346C11.6665 2.62103 12.1198 1.9852 12.7947 1.75097L17.8015 0.0818153C18.9214 -0.261507 19.9998 0.569334 19.9998 1.6669V16.6669C19.9998 17.3786 19.5464 18.0135 18.8723 18.2485L13.8639 19.9185C13.6814 19.9752 13.5124 20.0002 13.3331 20.0002Z"/><path fill="#fff" d="M7.2915 4.16672C6.9465 4.16672 6.6665 3.88672 6.6665 3.54172V2.29172C6.6665 1.02753 7.69388 0 8.95807 0H18.3331C18.6781 0 18.9581 0.279999 18.9581 0.625C18.9581 0.970001 18.6781 1.25 18.3331 1.25H8.95807C8.38388 1.25 7.9165 1.71753 7.9165 2.29172V3.54172C7.9165 3.88672 7.6365 4.16672 7.2915 4.16672Z"/><path fill="#fff" d="M12.2915 17.5H8.95807C7.69388 17.5 6.6665 16.4724 6.6665 15.2083V13.9583C6.6665 13.6133 6.9465 13.3333 7.2915 13.3333C7.63651 13.3333 7.9165 13.6133 7.9165 13.9583V15.2083C7.9165 15.7824 8.38388 16.25 8.95807 16.25H12.2915C12.6365 16.25 12.9165 16.53 12.9165 16.875C12.9165 17.22 12.6365 17.5 12.2915 17.5Z"/></g><defs><clipPath id="clip0"><rect width="20" height="20" fill="#fff"/></clipPath></defs></svg>