<svg xmlns="http://www.w3.org/2000/svg" width="23" height="23" fill="none" viewBox="0 0 23 23"><path fill="#5C63FF" d="M11.5 6.89324C8.95067 6.89324 6.89325 8.95066 6.89325 11.5C6.89325 14.0493 8.95067 16.1067 11.5 16.1067C14.0493 16.1067 16.1067 14.0493 16.1067 11.5C16.1067 8.95066 14.0493 6.89324 11.5 6.89324ZM11.5 14.494C9.85135 14.494 8.50594 13.1486 8.50594 11.5C8.50594 9.85135 9.85135 8.50594 11.5 8.50594C13.1486 8.50594 14.494 9.85135 14.494 11.5C14.494 13.1486 13.1486 14.494 11.5 14.494ZM16.2954 5.63094C15.7002 5.63094 15.2195 6.1116 15.2195 6.70682C15.2195 7.30203 15.7002 7.78269 16.2954 7.78269C16.8906 7.78269 17.3713 7.30428 17.3713 6.70682C17.3715 6.56548 17.3437 6.4255 17.2897 6.29488C17.2357 6.16427 17.1565 6.0456 17.0566 5.94566C16.9566 5.84572 16.8379 5.76648 16.7073 5.71247C16.5767 5.65847 16.4367 5.63076 16.2954 5.63094ZM20.4799 11.5C20.4799 10.2601 20.4911 9.03152 20.4215 7.79392C20.3518 6.35642 20.0239 5.08064 18.9727 4.02947C17.9193 2.97605 16.6458 2.65037 15.2083 2.58074C13.9684 2.51111 12.7398 2.52234 11.5022 2.52234C10.2624 2.52234 9.03377 2.51111 7.79618 2.58074C6.35868 2.65037 5.08289 2.9783 4.03172 4.02947C2.9783 5.08289 2.65262 6.35642 2.58299 7.79392C2.51336 9.03377 2.52459 10.2624 2.52459 11.5C2.52459 12.7376 2.51336 13.9684 2.58299 15.206C2.65262 16.6435 2.98055 17.9193 4.03172 18.9705C5.08514 20.0239 6.35868 20.3496 7.79618 20.4192C9.03602 20.4888 10.2646 20.4776 11.5022 20.4776C12.7421 20.4776 13.9707 20.4888 15.2083 20.4192C16.6458 20.3496 17.9216 20.0217 18.9727 18.9705C20.0262 17.9171 20.3518 16.6435 20.4215 15.206C20.4933 13.9684 20.4799 12.7398 20.4799 11.5ZM18.5033 16.7963C18.3393 17.2051 18.1417 17.5105 17.825 17.825C17.5083 18.1417 17.2051 18.3393 16.7963 18.5033C15.6148 18.9727 12.8095 18.8672 11.5 18.8672C10.1905 18.8672 7.38289 18.9727 6.20145 18.5055C5.79266 18.3416 5.48719 18.1439 5.17274 17.8272C4.85604 17.5105 4.65838 17.2073 4.49442 16.7985C4.02723 15.6148 4.1328 12.8095 4.1328 11.5C4.1328 10.1905 4.02723 7.38289 4.49442 6.20144C4.65838 5.79266 4.85604 5.48719 5.17274 5.17273C5.48944 4.85828 5.79266 4.65838 6.20145 4.49441C7.38289 4.02723 10.1905 4.13279 11.5 4.13279C12.8095 4.13279 15.6171 4.02723 16.7985 4.49441C17.2073 4.65838 17.5128 4.85603 17.8272 5.17273C18.1439 5.48943 18.3416 5.79266 18.5056 6.20144C18.9727 7.38289 18.8672 10.1905 18.8672 11.5C18.8672 12.8095 18.9727 15.6148 18.5033 16.7963Z"/></svg>