<svg xmlns="http://www.w3.org/2000/svg" width="27" height="20" fill="none" viewBox="0 0 27 20"><rect width="27" height="20" fill="#2AD53B" rx="3"/><path fill="#fff" d="M13.9514 6.99036C13.6547 6.99036 13.3647 7.07833 13.1181 7.24315C12.8714 7.40797 12.6791 7.64224 12.5656 7.91633C12.4521 8.19042 12.4224 8.49202 12.4802 8.78299C12.5381 9.07396 12.681 9.34124 12.8908 9.55102C13.1005 9.7608 13.3678 9.90366 13.6588 9.96153C13.9498 10.0194 14.2514 9.98971 14.5254 9.87618C14.7995 9.76264 15.0338 9.57039 15.1986 9.32371C15.3634 9.07704 15.4514 8.78703 15.4514 8.49036C15.451 8.09267 15.2928 7.7114 15.0116 7.4302C14.7304 7.14899 14.3491 6.99081 13.9514 6.99036ZM13.9514 9.24036C13.8031 9.24036 13.6581 9.19637 13.5347 9.11396C13.4114 9.03155 13.3153 8.91441 13.2585 8.77737C13.2017 8.64032 13.1869 8.48952 13.2158 8.34404C13.2448 8.19855 13.3162 8.06492 13.4211 7.96003C13.526 7.85514 13.6596 7.78371 13.8051 7.75477C13.9506 7.72583 14.1014 7.74068 14.2384 7.79745C14.3755 7.85421 14.4926 7.95034 14.575 8.07368C14.6574 8.19702 14.7014 8.34202 14.7014 8.49036C14.7012 8.6892 14.6221 8.87983 14.4815 9.02043C14.3409 9.16104 14.1503 9.24013 13.9514 9.24036Z"/><path fill="#fff" d="M16.8338 5.60579C16.1211 4.8933 15.1698 4.47005 14.1634 4.41773C13.157 4.36541 12.167 4.68773 11.3842 5.32248C10.6015 5.95723 10.0817 6.85942 9.92505 7.85491C9.7684 8.8504 9.98606 9.86863 10.536 10.7131L13.3698 15.0634C13.4328 15.1602 13.5191 15.2397 13.6206 15.2948C13.7222 15.3498 13.8359 15.3787 13.9514 15.3787C14.067 15.3787 14.1807 15.3498 14.2822 15.2948C14.3838 15.2397 14.47 15.1602 14.5331 15.0634L17.3669 10.7131C17.8772 9.92973 18.1027 8.99478 18.0057 8.06493C17.9086 7.13509 17.4949 6.26686 16.8338 5.60579ZM16.7385 10.3037L13.9514 14.5822L11.1643 10.3037C10.3112 8.99403 10.4942 7.24138 11.5994 6.13611C11.9083 5.82723 12.275 5.58221 12.6785 5.41505C13.0821 5.24788 13.5146 5.16184 13.9514 5.16184C14.3883 5.16184 14.8208 5.24788 15.2244 5.41505C15.6279 5.58221 15.9946 5.82723 16.3035 6.13611C17.4087 7.24138 17.5917 8.99403 16.7385 10.3037Z"/></svg>