<svg xmlns="http://www.w3.org/2000/svg" width="27" height="20" fill="none" viewBox="0 0 27 20"><rect width="27" height="20" fill="#748C13" rx="3"/><g clip-path="url(#clip0)"><path fill="#fff" d="M18.2436 5.75737C17.1104 4.62412 15.6036 4 14.001 4C12.3983 4 10.8916 4.62412 9.75832 5.75737C8.62509 6.89062 8.00098 8.39734 8.00098 10C8.00098 11.6027 8.62509 13.1094 9.75834 14.2427C10.8916 15.3759 12.3983 16 14.001 16C14.9952 16 15.9802 15.7517 16.8495 15.2819C17.0249 15.1872 17.0903 14.9682 16.9955 14.7928C16.9008 14.6174 16.6818 14.5521 16.5064 14.6468C15.7421 15.0598 14.8757 15.2781 14.001 15.2781C11.0906 15.2781 8.72288 12.9104 8.72288 10C8.72288 7.08965 11.0906 4.72192 14.001 4.72192C16.9113 4.72192 19.279 7.08967 19.279 10C19.279 10.6888 19.1117 11.5083 18.9615 11.8131C18.8284 12.0833 18.4511 12.4639 18.0292 12.4639C17.4831 12.4639 17.0389 12.0197 17.0389 11.4736V7.66759C17.0389 7.46826 16.8772 7.30663 16.6779 7.30663C16.4786 7.30663 16.3169 7.46823 16.3169 7.66759V8.03641C15.7593 7.37966 14.928 6.9621 14.001 6.9621C12.3259 6.9621 10.9631 8.3249 10.9631 10C10.9631 11.6751 12.3258 13.0379 14.001 13.0379C14.9581 13.0379 15.8132 12.5928 16.3704 11.8988C16.56 12.6379 17.2318 13.1858 18.0292 13.1858C18.7255 13.1858 19.3511 12.6558 19.6091 12.1322C19.8288 11.6863 20.0009 10.7498 20.0009 10C20.001 8.39734 19.3768 6.89062 18.2436 5.75737ZM14.001 12.316C12.7239 12.316 11.685 11.277 11.685 10C11.685 8.72296 12.7239 7.68402 14.001 7.68402C15.278 7.68402 16.3169 8.72296 16.3169 10C16.3169 11.277 15.278 12.316 14.001 12.316Z"/></g><defs><clipPath id="clip0"><rect width="12" height="12" fill="#fff" transform="translate(8 4)"/></clipPath></defs></svg>