<svg xmlns="http://www.w3.org/2000/svg" width="79" height="79" fill="none" viewBox="0 0 79 79"><g clip-path="url(#clip0)"><path fill="#C9C8FF" d="M70.4727 32.9165C67.3439 32.9165 64.6468 35.1176 64.0211 38.1831H47.9574C47.6602 36.7353 46.8803 35.431 45.7454 34.4835L50.1959 26.3335H54.8043C55.48 29.6449 58.5538 31.9063 61.9164 31.5664C65.279 31.227 67.8376 28.3961 67.8376 25.0166C67.8376 21.6371 65.279 18.8061 61.9164 18.4668C58.5538 18.1269 55.48 20.3889 54.8043 23.7002H50.7227V17.6694C50.5051 17.5778 50.2761 17.5103 50.0555 17.4241C49.9976 17.3843 49.9361 17.35 49.8728 17.3204C49.5775 17.2083 49.2737 17.1258 48.9748 17.0257C48.7475 16.9498 48.5227 16.8714 48.2925 16.8021C47.7946 16.6526 47.2896 16.5279 46.7827 16.4121C46.5482 16.3585 46.3168 16.2976 46.0799 16.2512C45.5453 16.1469 45.0046 16.0716 44.4616 16.0041C44.2446 15.977 44.0312 15.9372 43.8119 15.9161C43.0494 15.8432 42.2809 15.7998 41.5058 15.7998C36.0458 15.7961 30.7533 17.6869 26.5318 21.1495C26.5029 21.173 26.4709 21.1929 26.442 21.217C26.0068 21.5757 25.5994 21.965 25.1914 22.3538C25.0497 22.4882 24.8954 22.6099 24.7574 22.7479C24.4681 23.0379 24.2053 23.3531 23.9305 23.6575C23.6966 23.9166 23.4489 24.1625 23.2259 24.432C23.0734 24.6164 22.942 24.8189 22.7949 25.0082C22.4761 25.4192 22.1518 25.826 21.8601 26.2582C21.833 26.2974 21.8119 26.3414 21.7848 26.3812C20.9596 27.6125 20.2521 28.9192 19.6716 30.2832C19.6554 30.3211 19.6451 30.3615 19.6288 30.3989C17.1981 36.223 17.1981 42.777 19.6288 48.6005C19.6445 48.6385 19.6554 48.6789 19.6716 48.7162C20.2521 50.0808 20.9596 51.3869 21.7842 52.6189C21.8107 52.658 21.8324 52.702 21.8595 52.7418C22.1512 53.1734 22.4755 53.5808 22.7943 53.9919C22.9414 54.1811 23.0728 54.383 23.2253 54.5675C23.4483 54.8375 23.696 55.0834 23.9299 55.3426C24.2047 55.6469 24.4669 55.9622 24.7568 56.2521C24.8948 56.3901 25.0491 56.5112 25.1908 56.6462C25.5988 57.035 26.0068 57.4238 26.4414 57.783C26.4703 57.8071 26.5023 57.827 26.5312 57.8505C30.7533 61.3131 36.0458 63.2039 41.5058 63.2002C42.2809 63.2002 43.0494 63.1569 43.8119 63.0839C44.0312 63.0628 44.2446 63.023 44.4616 62.9959C45.0046 62.9284 45.5453 62.8531 46.0799 62.7488C46.3168 62.7024 46.5482 62.6415 46.7827 62.5879C47.2896 62.4722 47.7946 62.3474 48.2925 62.1979C48.5221 62.1286 48.7475 62.0503 48.9748 61.9743C49.2731 61.8743 49.5775 61.7917 49.8728 61.6796C49.9361 61.65 49.9976 61.6151 50.0555 61.5759C50.2761 61.4897 50.5051 61.4228 50.7227 61.33V55.2998H54.8043C55.48 58.6111 58.5538 60.8731 61.9164 60.5332C65.279 60.1939 67.8376 57.3629 67.8376 53.9834C67.8376 50.604 65.279 47.773 61.9164 47.4336C58.5538 47.0937 55.48 49.3551 54.8043 52.6665H50.1959L45.7454 44.5165C46.8803 43.569 47.6602 42.2647 47.9574 40.817H64.0211C64.7137 44.2109 67.9183 46.4874 71.352 46.0245C74.7851 45.561 77.2714 42.516 77.0399 39.0594C76.8079 35.6028 73.9371 32.9177 70.4727 32.9165ZM61.2558 21.067C63.4371 21.067 65.2061 22.8353 65.2061 25.0166C65.2061 27.1984 63.4371 28.9668 61.2558 28.9668C59.0746 28.9668 57.3056 27.1984 57.3056 25.0166C57.3122 22.8378 59.077 21.073 61.2558 21.067ZM61.2558 50.0332C63.4371 50.0332 65.2061 51.8016 65.2061 53.9834C65.2061 56.1647 63.4371 57.9331 61.2558 57.9331C59.0746 57.9331 57.3056 56.1647 57.3056 53.9834C57.3122 51.8046 59.077 50.0398 61.2558 50.0332ZM31.6574 27.4655C28.023 29.8342 25.7953 33.8465 25.7061 38.1831C25.7061 38.9105 25.1166 39.5 24.3891 39.5C23.6623 39.5 23.0728 38.9105 23.0728 38.1831C23.1722 32.9231 25.8821 28.0567 30.3012 25.201C30.7057 24.9587 31.2083 24.9509 31.6206 25.1799C32.0329 25.409 32.2914 25.8405 32.2987 26.3124C32.3065 26.7838 32.0618 27.2232 31.6574 27.4655ZM43.402 42.9626C42.8228 43.2863 42.1694 43.4545 41.5058 43.4502C39.3246 43.4502 37.5556 41.6813 37.5556 39.5C37.5556 37.3188 39.3246 35.5498 41.5058 35.5498C42.1694 35.5455 42.8228 35.7137 43.402 36.0374C44.6683 36.7293 45.4561 38.0571 45.4561 39.5C45.4561 40.9429 44.6683 42.2707 43.402 42.9626ZM70.4727 43.4502C68.2908 43.4502 66.5224 41.6813 66.5224 39.5C66.5224 37.3188 68.2908 35.5498 70.4727 35.5498C72.6539 35.5498 74.4223 37.3188 74.4223 39.5C74.4163 41.6788 72.6515 43.4436 70.4727 43.4502Z"/><path fill="#C9C8FF" d="M67.8394 63.2002C64.7107 63.1996 62.0135 65.4014 61.3872 68.4668V68.4674L55.222 68.4704L53.5229 66.7714C53.5145 66.7623 53.5097 66.7509 53.5006 66.7418L53.4874 66.7286L50.8673 64.1218C40.9984 67.8731 29.8432 65.3682 22.5255 57.7583C15.2079 50.1477 13.1418 38.9033 17.277 29.1886C21.4117 19.4746 30.948 13.1683 41.5059 13.1665C44.7057 13.1616 47.8796 13.7463 50.8673 14.8915L53.5006 12.2582C53.5097 12.2491 53.5145 12.2377 53.5229 12.2286L55.2124 10.5332H61.3872C62.0635 13.8445 65.1368 16.1065 68.4994 15.7666C71.862 15.4273 74.4211 12.5963 74.4211 9.21683C74.4211 5.83676 71.862 3.00638 68.4994 2.66644C65.1368 2.32711 62.0635 4.58852 61.3872 7.89988H55.2124C54.5174 7.90169 53.852 8.17773 53.3596 8.66775L52.2421 9.78519L52.2367 9.78278C51.3085 9.44405 50.3641 9.15414 49.4057 8.91366V2.63329C49.4015 1.18073 48.225 0.00421906 46.7724 0H36.2393C34.7867 0.00421906 33.6102 1.18073 33.606 2.63329V8.91366C30.7418 9.64054 27.9964 10.7761 25.456 12.2847L21.0446 7.8607C20.551 7.35743 19.8766 7.07294 19.1714 7.07053C18.4662 7.06812 17.7899 7.34779 17.2921 7.84744L9.86656 15.2736C9.36329 15.7672 9.0788 16.4417 9.07639 17.1468C9.07398 17.852 9.35364 18.5283 9.8533 19.0261L14.2905 23.4501C12.7819 25.9906 11.6464 28.736 10.9195 31.6001H4.63915C3.18659 31.6043 2.01008 32.7809 2.00586 34.2334V44.7666C2.01008 46.2191 3.18659 47.3957 4.63915 47.3999H10.9195C11.6464 50.264 12.7819 53.0094 14.2905 55.5499L9.86656 59.9612C9.36329 60.4548 9.0788 61.1293 9.07639 61.8345C9.07398 62.5397 9.35364 63.2159 9.8533 63.7138L17.2794 71.1393C17.7731 71.6426 18.4475 71.9271 19.1527 71.9295C19.8579 71.9319 20.5341 71.6522 21.032 71.1526L25.456 66.7153C27.9964 68.2239 30.7418 69.3595 33.606 70.0863V76.3667C33.6102 77.8193 34.7867 78.9958 36.2393 79H46.7724C48.225 78.9958 49.4015 77.8193 49.4057 76.3667V70.0863C50.3641 69.8459 51.3085 69.5559 52.2367 69.2172L52.2427 69.2148L53.3584 70.331C53.8508 70.8217 54.5174 71.0983 55.2124 71.1001H61.3872C62.0804 74.494 65.285 76.7711 68.7188 76.3076C72.1519 75.8441 74.6381 72.7992 74.4066 69.3426C74.1746 65.886 71.3032 63.2008 67.8394 63.2002ZM67.8394 5.26659C70.0206 5.26659 71.789 7.03497 71.789 9.21683C71.789 11.3981 70.0206 13.1665 67.8394 13.1665C65.6575 13.1665 63.8891 11.3981 63.8891 9.21683C63.8958 7.03799 65.6605 5.27322 67.8394 5.26659ZM67.8394 73.7334C65.6575 73.7334 63.8891 71.965 63.8891 69.7832C63.8891 67.6019 65.6575 65.8335 67.8394 65.8335C70.0206 65.8335 71.789 67.6019 71.789 69.7832C71.783 71.962 70.0182 73.7268 67.8394 73.7334Z"/></g><defs><clipPath id="clip0"><rect width="79" height="79" fill="#fff"/></clipPath></defs></svg>