<svg xmlns="http://www.w3.org/2000/svg" width="15" height="15" fill="none" viewBox="0 0 15 15"><path fill="#0DFF16" d="M0 14.5044H4.55947V1.68506H0V14.5044ZM2.3741 13.2586C1.68555 13.2586 1.12738 12.7005 1.12738 12.0119C1.12738 11.3234 1.68555 10.7652 2.3741 10.7652C3.06264 10.7652 3.62081 11.3234 3.62081 12.0119C3.62081 12.7004 3.06264 13.2586 2.3741 13.2586ZM0.991189 2.94057H3.56828V9.61457H0.991189V2.94057Z"/><path fill="#0DFF16" d="M3.10574 3.60132H1.51984V4.59251H3.10574V3.60132Z"/><path fill="#0DFF16" d="M3.10574 4.85693H1.51984V5.84812H3.10574V4.85693Z"/><path fill="#0DFF16" d="M10.4406 1.68506V14.5044H15V1.68506H10.4406ZM11.4317 2.94057H14.0088V9.61457H11.4317V2.94057ZM12.8311 13.2586C12.1426 13.2586 11.5844 12.7005 11.5844 12.0119C11.5844 11.3234 12.1426 10.7652 12.8311 10.7652C13.5196 10.7652 14.0778 11.3234 14.0778 12.0119C14.0778 12.7004 13.5196 13.2586 12.8311 13.2586Z"/><path fill="#0DFF16" d="M13.5462 3.60132H11.9603V4.59251H13.5462V3.60132Z"/><path fill="#0DFF16" d="M13.5462 4.85693H11.9603V5.84812H13.5462V4.85693Z"/><path fill="#0DFF16" d="M5.22028 14.5044H9.71367V0.495605H5.22028V14.5044ZM7.55406 13.2586C6.86552 13.2586 6.30735 12.7005 6.30735 12.0119C6.30735 11.3234 6.86552 10.7652 7.55406 10.7652C8.24261 10.7652 8.80078 11.3234 8.80078 12.0119C8.80078 12.7004 8.24261 13.2586 7.55406 13.2586ZM6.14539 1.75111H8.78856V9.61455H6.14539V1.75111Z"/><path fill="#0DFF16" d="M8.25994 2.41187H6.74011V3.40305H8.25994V2.41187Z"/><path fill="#0DFF16" d="M8.25994 3.7334H6.74011V4.72459H8.25994V3.7334Z"/><path fill="#0DFF16" d="M8.25994 5.05518H6.74011V6.04637H8.25994V5.05518Z"/></svg>