<svg xmlns="http://www.w3.org/2000/svg" width="15" height="15" fill="none" viewBox="0 0 15 15"><path fill="#fff" d="M14.3035 8.17644H13.7595C13.6123 8.17644 13.4407 8.04323 13.3847 7.88548C13.3328 7.73928 13.2719 7.59377 13.2038 7.45288C13.1312 7.30304 13.1579 7.08857 13.262 6.9845L13.6493 6.5972C13.9206 6.3259 13.9206 5.8844 13.6493 5.61308L13.0207 4.98451C12.8892 4.85306 12.7145 4.7807 12.5286 4.7807C12.3428 4.7807 12.168 4.85306 12.0366 4.98451L11.6493 5.3718C11.5871 5.43396 11.4835 5.47108 11.3724 5.47108C11.3028 5.47108 11.2366 5.45685 11.181 5.42994C11.0401 5.36175 10.8944 5.30075 10.7478 5.24863C10.5902 5.19266 10.4569 5.02102 10.4569 4.87386V4.32978C10.4569 3.94612 10.1448 3.63391 9.76106 3.63391H8.87193C8.48816 3.63391 8.17604 3.94612 8.17604 4.32978V4.87386C8.17604 5.02107 8.04285 5.19273 7.88516 5.24863C7.73883 5.3006 7.59314 5.36144 7.45235 5.42949C7.3977 5.45592 7.32988 5.47047 7.26138 5.47047C7.1498 5.47047 7.04598 5.43328 6.98364 5.37097L6.59697 4.98445C6.46553 4.85301 6.29078 4.78065 6.10484 4.78065C5.91897 4.78065 5.74422 4.85301 5.61278 4.98438L4.98357 5.61321C4.85206 5.74457 4.77969 5.9193 4.77962 6.10519C4.77962 6.29106 4.85198 6.46581 4.98342 6.59725L5.37072 6.98455C5.47487 7.0887 5.50163 7.30332 5.42911 7.45326C5.36115 7.5939 5.3003 7.73934 5.24843 7.88561C5.19246 8.04325 5.02089 8.17649 4.87366 8.17649H4.32965C3.94592 8.17649 3.63379 8.48869 3.63379 8.87235V9.76151C3.63379 10.1452 3.94592 10.4574 4.32965 10.4574H4.87366C5.02089 10.4574 5.19254 10.5905 5.2485 10.7482C5.3003 10.894 5.36115 11.0396 5.42934 11.1805C5.50181 11.3304 5.47497 11.545 5.37075 11.6492L4.98345 12.0365C4.71215 12.3078 4.71215 12.7493 4.98345 13.0206L5.61291 13.6501C5.74435 13.7816 5.9191 13.8539 6.10497 13.8539C6.29083 13.8539 6.46558 13.7816 6.59702 13.6501L6.98432 13.2629C7.04663 13.2005 7.15041 13.1634 7.26189 13.1634C7.3314 13.1634 7.39742 13.1775 7.45286 13.2043C7.59375 13.2724 7.73921 13.3333 7.88531 13.3852C8.04293 13.4412 8.17619 13.6128 8.17619 13.76V14.3041C8.17619 14.6878 8.48834 15 8.87203 15H9.76121C10.1449 15 10.4571 14.6878 10.4571 14.3041V13.76C10.4571 13.6128 10.5903 13.4412 10.7479 13.3853C10.8943 13.3333 11.04 13.2724 11.1808 13.2044C11.2354 13.178 11.3032 13.1634 11.3717 13.1634C11.4833 13.1634 11.5871 13.2006 11.6494 13.2629L12.0367 13.6502C12.1681 13.7817 12.3428 13.854 12.5286 13.854C12.7146 13.854 12.8893 13.7816 13.0208 13.6501L13.6497 13.0209C13.9208 12.7495 13.9208 12.308 13.6496 12.0367L13.2626 11.6495C13.1585 11.5455 13.1318 11.3308 13.2043 11.1809C13.2723 11.0402 13.3331 10.8946 13.385 10.7483C13.441 10.5907 13.6125 10.4575 13.7598 10.4575H14.3037C14.6875 10.4575 14.9996 10.1453 14.9996 9.76166V8.8725C14.9994 8.48859 14.6872 8.17644 14.3035 8.17644ZM11.3558 9.31688C11.3558 10.4413 10.4409 11.3562 9.31645 11.3562C8.19205 11.3562 7.2772 10.4413 7.2772 9.31688C7.2772 8.19246 8.19205 7.27762 9.31645 7.27762C10.4409 7.27762 11.3558 8.19238 11.3558 9.31688Z"/><path fill="#fff" d="M5.10068 3.71198C5.11385 3.67493 5.15784 3.6437 5.17856 3.6437H5.45104C5.70682 3.6437 5.91495 3.43565 5.91495 3.17979V2.73521C5.91495 2.47938 5.70682 2.2713 5.45104 2.2713H5.17863C5.15791 2.2713 5.11392 2.24007 5.10078 2.20303C5.07342 2.12594 5.04133 2.04918 5.00537 1.97502C4.9886 1.9403 4.99749 1.88795 5.01202 1.87342L5.20572 1.67974C5.38656 1.4988 5.38656 1.20454 5.20572 1.0237L4.89142 0.709399C4.80382 0.621797 4.68728 0.573562 4.56337 0.573562C4.43943 0.573562 4.3229 0.621898 4.2353 0.709475L4.0417 0.903099C4.03566 0.909138 4.01494 0.91879 3.98518 0.91879C3.96825 0.91879 3.95185 0.915556 3.9401 0.90982C3.86581 0.873865 3.7891 0.841775 3.71209 0.814487C3.67497 0.801347 3.64374 0.757256 3.64374 0.736612V0.464154C3.64374 0.208296 3.43561 0.000244141 3.17983 0.000244141H2.73525C2.47947 0.000244141 2.27134 0.208296 2.27134 0.464154V0.736612C2.27134 0.757332 2.24011 0.801246 2.20307 0.814411C2.12567 0.841851 2.04888 0.874017 1.9749 0.90982C1.96323 0.915455 1.94675 0.918715 1.92982 0.918715C1.90006 0.918715 1.87942 0.909138 1.8734 0.903099L1.6797 0.709475C1.5921 0.621873 1.47559 0.573637 1.35166 0.573637C1.22772 0.573637 1.11126 0.621873 1.02368 0.709475L0.709332 1.02378C0.528493 1.20472 0.528493 1.49906 0.709332 1.6799L0.902931 1.87349C0.91746 1.88802 0.92643 1.94038 0.909652 1.97502C0.873697 2.04925 0.841607 2.12602 0.814242 2.20311C0.801103 2.24015 0.757012 2.27146 0.736368 2.27146H0.46391C0.208153 2.27146 0 2.47951 0 2.73537V3.17995C0 3.43573 0.208077 3.64386 0.463834 3.64386H0.736318C0.757037 3.64386 0.801028 3.67509 0.814192 3.71213C0.841556 3.78929 0.873646 3.86598 0.909602 3.94014C0.926379 3.97486 0.917485 4.02719 0.902956 4.04174L0.709256 4.23544C0.621654 4.32304 0.573419 4.43958 0.573419 4.56349C0.573419 4.68743 0.621654 4.80388 0.709332 4.89156L1.02363 5.20579C1.11124 5.29339 1.22774 5.34162 1.35168 5.34162C1.47562 5.34162 1.59207 5.29339 1.67965 5.20579L1.87335 5.01211C1.87936 5.00607 1.90011 4.99642 1.92987 4.99642C1.9468 4.99642 1.9632 4.99965 1.97495 5.00536C2.04926 5.04132 2.12597 5.07341 2.20296 5.1007C2.24008 5.11384 2.27131 5.1579 2.27131 5.17855V5.45103C2.27131 5.70686 2.47947 5.91494 2.73522 5.91494H3.1798C3.43558 5.91494 3.64371 5.70689 3.64371 5.45103V5.17862C3.64371 5.1579 3.67494 5.11399 3.71199 5.10085C3.78908 5.07349 3.86576 5.0414 3.94 5.00544C3.95175 4.99971 3.96822 4.99647 3.98515 4.99647C4.01492 4.99647 4.03556 5.00612 4.04167 5.01216L4.23537 5.20584C4.32298 5.29344 4.43948 5.34167 4.56342 5.34167C4.68736 5.34167 4.80382 5.29344 4.89139 5.20584L5.20569 4.89156C5.38653 4.71062 5.38653 4.41636 5.20569 4.23552L5.01209 4.04192C4.99754 4.02739 4.98857 3.97496 5.00535 3.94032C5.04133 3.86568 5.07339 3.78899 5.10068 3.71198ZM3.86114 2.95749C3.86114 3.45574 3.45577 3.86118 2.95753 3.86118C2.4592 3.86118 2.05384 3.45582 2.05384 2.95749C2.05384 2.45917 2.4592 2.0538 2.95753 2.0538C3.45575 2.0538 3.86114 2.45919 3.86114 2.95749Z"/></svg>