<svg xmlns="http://www.w3.org/2000/svg" width="15" height="15" fill="none" viewBox="0 0 15 15"><g clip-path="url(#clip0)"><path fill="#fff" d="M4.01382 15H5.3531C5.42703 15 5.48699 14.9401 5.48699 14.8661V12.5893C5.48699 12.4415 5.60693 12.3215 5.75478 12.3215H8.03155C8.1056 12.3215 8.16556 12.2616 8.16556 12.1875V10.8484C8.16556 10.7743 8.1056 10.7143 8.03155 10.7143H5.75478C5.60693 10.7143 5.48699 10.5944 5.48699 10.4466V8.16978C5.48699 8.09585 5.42703 8.03589 5.3531 8.03589H4.01382C3.93977 8.03589 3.87981 8.09585 3.87981 8.16978V10.4466C3.87981 10.5944 3.75999 10.7143 3.61202 10.7143H1.33525C1.26132 10.7143 1.20135 10.7743 1.20135 10.8484V12.1875C1.20135 12.2616 1.26132 12.3215 1.33525 12.3215H3.61202C3.75999 12.3215 3.87981 12.4415 3.87981 12.5893V14.8661C3.87981 14.9401 3.93977 15 4.01382 15Z"/><path fill="#fff" d="M11.3797 2.81262C11.3797 2.88667 11.4397 2.94663 11.5137 2.94663H13.7021L11.3611 0.238647L11.3797 2.81262Z"/><path fill="#fff" d="M13.4905 11.25C13.6501 11.2555 13.7841 11.131 13.7906 10.9715V3.48234H11.5138C11.146 3.48234 10.8471 3.18582 10.8441 2.81801L10.8253 0.000167899H5.2513C5.09177 -0.00521078 4.95776 0.1193 4.95135 0.278828V7.50008H5.35315C5.72291 7.50008 6.02274 7.79991 6.02274 8.16978V10.1787H8.03161C8.40148 10.1787 8.70131 10.4785 8.70131 10.8484V11.25H13.4905Z"/></g><defs><clipPath id="clip0"><rect width="15" height="15" fill="#fff"/></clipPath></defs></svg>