<svg xmlns="http://www.w3.org/2000/svg" width="27" height="20" fill="none" viewBox="0 0 27 20"><rect width="27" height="20" fill="#3E45FF" rx="3"/><path fill="#fff" d="M13.0731 10.8802C13.7689 11.586 14.6108 12.131 15.5398 12.4768L16.7964 11.4768C16.8337 11.4512 16.8779 11.4374 16.9231 11.4374C16.9683 11.4374 17.0125 11.4512 17.0498 11.4768L19.3831 12.9802C19.4717 13.0334 19.5467 13.1065 19.6021 13.1938C19.6576 13.281 19.692 13.3799 19.7027 13.4827C19.7134 13.5855 19.7 13.6894 19.6636 13.7861C19.6272 13.8829 19.5688 13.9698 19.4931 14.0402L18.3998 15.1202C18.2432 15.2749 18.0507 15.3884 17.8396 15.4506C17.6285 15.5129 17.4052 15.5219 17.1898 15.4768C15.0405 15.0329 13.0595 13.9933 11.4731 12.4768C9.92192 10.9452 8.84851 8.99644 8.38309 6.86682C8.33711 6.6547 8.34671 6.4343 8.41095 6.22698C8.47519 6.01966 8.59189 5.83245 8.74975 5.68349L9.88309 4.59016C9.95322 4.51809 10.0387 4.46282 10.1333 4.42848C10.2278 4.39415 10.3289 4.38165 10.4289 4.39191C10.5289 4.40217 10.6253 4.43493 10.7109 4.48773C10.7965 4.54054 10.869 4.61202 10.9231 4.69682L12.4764 7.00016C12.5032 7.03633 12.5177 7.08015 12.5177 7.12516C12.5177 7.17017 12.5032 7.21399 12.4764 7.25016L11.4531 8.48016C11.8083 9.39047 12.3617 10.2103 13.0731 10.8802Z"/></svg>