<svg xmlns="http://www.w3.org/2000/svg" width="15" height="13" fill="none" viewBox="0 0 15 13"><path fill="#9795FF" d="M4.0542 12.4653C4.0542 12.5205 4.09897 12.5653 4.1542 12.5653H6.60379C6.65902 12.5653 6.70379 12.5205 6.70379 12.4653V9.95585C6.70379 9.90062 6.74857 9.85585 6.80379 9.85585H8.19642C8.25165 9.85585 8.29642 9.90062 8.29642 9.95585V12.4653C8.29642 12.5205 8.34119 12.5653 8.39642 12.5653H10.846C10.9012 12.5653 10.946 12.5205 10.946 12.4653V0.534815C10.946 0.479586 10.9012 0.434814 10.846 0.434814H4.1542C4.09897 0.434814 4.0542 0.479586 4.0542 0.534814V12.4653ZM7.98357 1.96439C7.98357 1.90916 8.02834 1.86439 8.08357 1.86439H9.47616C9.53139 1.86439 9.57616 1.90916 9.57616 1.96439V3.35701C9.57616 3.41224 9.53139 3.45701 9.47616 3.45701H8.08357C8.02834 3.45701 7.98357 3.41224 7.98357 3.35701V1.96439ZM7.98357 4.52397C7.98357 4.46874 8.02834 4.42397 8.08357 4.42397H9.47616C9.53139 4.42397 9.57616 4.46874 9.57616 4.52397V5.91659C9.57616 5.97182 9.53139 6.01659 9.47616 6.01659H8.08357C8.02834 6.01659 7.98357 5.97182 7.98357 5.91659V4.52397ZM7.98357 7.08349C7.98357 7.02826 8.02834 6.98349 8.08357 6.98349H9.47616C9.53139 6.98349 9.57616 7.02826 9.57616 7.08349V8.47611C9.57616 8.53134 9.53139 8.57611 9.47616 8.57611H8.08357C8.02834 8.57611 7.98357 8.53134 7.98357 8.47611V7.08349ZM5.42402 1.96439C5.42402 1.90916 5.46879 1.86439 5.52402 1.86439H6.91661C6.97184 1.86439 7.01661 1.90916 7.01661 1.96439V3.35701C7.01661 3.41224 6.97184 3.45701 6.91661 3.45701H5.52402C5.46879 3.45701 5.42402 3.41224 5.42402 3.35701V1.96439ZM5.42402 4.52397C5.42402 4.46874 5.46879 4.42397 5.52402 4.42397H6.91661C6.97184 4.42397 7.01661 4.46874 7.01661 4.52397V5.91659C7.01661 5.97182 6.97184 6.01659 6.91661 6.01659H5.52402C5.46879 6.01659 5.42402 5.97182 5.42402 5.91659V4.52397ZM5.42402 7.08349C5.42402 7.02826 5.46879 6.98349 5.52402 6.98349H6.91661C6.97184 6.98349 7.01661 7.02826 7.01661 7.08349V8.47611C7.01661 8.53134 6.97184 8.57611 6.91661 8.57611H5.52402C5.46879 8.57611 5.42402 8.53134 5.42402 8.47611V7.08349Z"/><path fill="#9795FF" d="M11.6646 1.52148C11.6093 1.52148 11.5646 1.56626 11.5646 1.62148V9.99863C11.5646 10.0539 11.6093 10.0986 11.6646 10.0986H12.4878C12.543 10.0986 12.5878 10.1434 12.5878 10.1986V12.4653C12.5878 12.5205 12.6325 12.5653 12.6878 12.5653H14.9C14.9552 12.5653 15 12.5205 15 12.4653V1.62148C15 1.56626 14.9552 1.52148 14.9 1.52148H11.6646ZM13.7529 8.83354C13.7529 8.88877 13.7081 8.93354 13.6529 8.93354H12.4029C12.3477 8.93354 12.3029 8.88877 12.3029 8.83354V7.5836C12.3029 7.52837 12.3477 7.4836 12.4029 7.4836H13.6529C13.7081 7.4836 13.7529 7.52837 13.7529 7.5836L13.7529 8.83354ZM13.7529 6.50323C13.7529 6.55846 13.7081 6.60323 13.6529 6.60323H12.4029C12.3477 6.60323 12.3029 6.55846 12.3029 6.50323V5.25332C12.3029 5.19809 12.3477 5.15332 12.4029 5.15332H13.6529C13.7081 5.15332 13.7529 5.19809 13.7529 5.25332L13.7529 6.50323ZM13.7529 4.17295C13.7529 4.22818 13.7081 4.27295 13.6529 4.27295H12.4029C12.3477 4.27295 12.3029 4.22818 12.3029 4.17295V2.92304C12.3029 2.86781 12.3477 2.82304 12.4029 2.82304H13.6529C13.7081 2.82304 13.7529 2.86781 13.7529 2.92304L13.7529 4.17295Z"/><path fill="#9795FF" d="M0 12.4653C0 12.5205 0.0447715 12.5653 0.1 12.5653H2.31225C2.36748 12.5653 2.41225 12.5205 2.41225 12.4653V10.1986C2.41225 10.1434 2.45702 10.0986 2.51225 10.0986H3.33543C3.39066 10.0986 3.43543 10.0539 3.43543 9.99863V1.62148C3.43543 1.56626 3.39066 1.52148 3.33543 1.52148H0.1C0.0447715 1.52148 0 1.56626 0 1.62148V12.4653ZM1.24713 2.92304C1.24713 2.86781 1.2919 2.82304 1.34713 2.82304H2.59706C2.65229 2.82304 2.69707 2.86781 2.69707 2.92304V4.17295C2.69707 4.22818 2.65229 4.27295 2.59706 4.27295H1.34713C1.2919 4.27295 1.24713 4.22818 1.24713 4.17295V2.92304ZM1.24713 5.25332C1.24713 5.19809 1.2919 5.15332 1.34713 5.15332H2.59706C2.65229 5.15332 2.69707 5.19809 2.69707 5.25332V6.50323C2.69707 6.55846 2.65229 6.60323 2.59706 6.60323H1.34713C1.2919 6.60323 1.24713 6.55846 1.24713 6.50323V5.25332ZM1.24713 7.58354C1.24713 7.52831 1.2919 7.48354 1.34713 7.48354H2.59706C2.65229 7.48354 2.69707 7.52831 2.69707 7.58354V8.83345C2.69707 8.88868 2.65229 8.93345 2.59706 8.93345H1.34713C1.2919 8.93345 1.24713 8.88868 1.24713 8.83345V7.58354Z"/></svg>