<svg xmlns="http://www.w3.org/2000/svg" width="15" height="15" fill="none" viewBox="0 0 15 15"><path fill="#0DFF16" d="M9.7998 2.143L8.03571 0.378906V1.33943C8.03571 1.78319 8.39551 2.143 8.83928 2.143H9.7998Z"/><path fill="#0DFF16" d="M7.90176 13.4463L7.92556 13.4291C8.1585 13.2551 8.46808 13.2226 8.73214 13.3444L8.75895 13.3562C8.79937 13.3739 8.84135 13.3924 8.88504 13.4077C8.92336 13.4235 8.93866 13.431 8.95501 13.4363C9.23398 13.5364 9.43448 13.7831 9.47516 14.0768L9.60699 14.9998H10.7501L10.884 14.0751C10.9242 13.7845 11.1215 13.5397 11.397 13.4387C11.4774 13.4087 11.5556 13.3758 11.6319 13.3423C11.8974 13.2226 12.207 13.2577 12.439 13.4336L13.184 13.9923L13.9939 13.1826L13.433 12.4364C13.2576 12.204 13.2232 11.8943 13.3433 11.6291C13.376 11.5532 13.4092 11.4753 13.4391 11.3944C13.5406 11.119 13.7859 10.9223 14.0767 10.8828L15 10.7489V9.60681L14.075 9.47288C13.7844 9.4326 13.5397 9.23537 13.4386 8.95993C13.4089 8.87949 13.3757 8.80102 13.3425 8.72437C13.2228 8.45913 13.258 8.14955 13.434 7.91793L13.9929 7.17295L13.1828 6.36323L12.4366 6.92392C12.2032 7.09997 11.8922 7.13384 11.6263 7.01234C11.5546 6.98095 11.4757 6.94799 11.3944 6.91752C11.1191 6.81589 10.9222 6.57079 10.8827 6.27992L10.7501 5.35693H9.60699L9.47307 6.28162C9.43291 6.57223 9.23555 6.81707 8.96011 6.91804C8.87967 6.94799 8.80146 6.98095 8.72521 7.01443C8.45971 7.13423 8.15 7.09918 7.91811 6.92314L7.17313 6.36441L6.3642 7.17412L6.92411 7.92028C7.10015 8.15348 7.13416 8.46436 7.01278 8.73C6.98139 8.80206 6.94817 8.8808 6.91796 8.96228C6.81647 9.23772 6.57124 9.43443 6.28036 9.47393L5.35712 9.60786V10.7511L6.28206 10.885C6.57268 10.9252 6.81738 11.1224 6.91848 11.398C6.94817 11.4783 6.98139 11.5568 7.01461 11.6334C7.13429 11.8986 7.0991 12.2082 6.92306 12.4398L6.3642 13.1826L7.17431 13.9923L7.90176 13.4463ZM10.1785 7.49979C11.6579 7.49979 12.8571 8.699 12.8571 10.1784C12.8571 11.6577 11.6579 12.8569 10.1785 12.8569C8.69918 12.8569 7.49997 11.6577 7.49997 10.1784C7.50154 8.69965 8.69984 7.50136 10.1785 7.49979Z"/><path fill="#0DFF16" d="M6.49554 12.1152C6.55413 12.0381 6.56538 11.9351 6.5247 11.8473C6.48638 11.7584 6.44976 11.6714 6.41602 11.581C6.38293 11.4905 6.30249 11.4256 6.20701 11.4126L5.05096 11.2465C4.91952 11.2275 4.82182 11.115 4.82143 10.9821V9.375C4.82143 9.24186 4.91913 9.12885 5.05096 9.10976L6.20544 8.94379C6.30105 8.93136 6.38201 8.86701 6.41575 8.77664C6.44976 8.68495 6.48638 8.59798 6.52287 8.51336C6.56472 8.42521 6.55452 8.32123 6.49606 8.24302L5.79646 7.30983C5.71642 7.20324 5.72715 7.05401 5.82131 6.95971L6.95971 5.82131C7.05401 5.72715 7.20324 5.71668 7.30983 5.79673L8.24197 6.49554C8.319 6.554 8.42194 6.56525 8.50983 6.5247C8.5985 6.48638 8.68574 6.44976 8.77559 6.41602C8.86636 6.38319 8.93149 6.30275 8.94457 6.20701L9.11094 5.05096C9.1299 4.91965 9.24225 4.82195 9.375 4.82143H10.1786V2.67857H8.83929C8.09993 2.67766 7.50092 2.07864 7.5 1.33929V0H0.803571C0.359802 0 0 0.359802 0 0.803571V12.5893C0 13.0331 0.359802 13.3929 0.803571 13.3929H5.81818C5.72741 13.2984 5.71825 13.1523 5.79646 13.0473L6.49554 12.1152ZM5.89286 6.42857H2.14286V5.89286H5.89286V6.42857ZM2.67857 1.07143H4.28571V1.60714H2.67857V1.07143ZM1.07143 1.07143H2.14286V1.60714H1.07143V1.07143ZM1.07143 2.14286H4.28571V2.67857H1.07143V2.14286ZM1.07143 4.28571H6.96429V4.82143H1.07143V4.28571ZM1.07143 5.89286H1.60714V6.42857H1.07143V5.89286ZM1.07143 7.5H2.67857V8.03571H1.07143V7.5ZM3.21429 9.64286H1.07143V9.10714H3.21429V9.64286ZM3.21429 7.5H3.75V8.03571H3.21429V7.5ZM4.28571 9.64286H3.75V9.10714H4.28571V9.64286Z"/><path fill="#0DFF16" d="M10.1786 12.3214C11.3621 12.3214 12.3214 11.362 12.3214 10.1785C12.3214 8.99499 11.3621 8.03564 10.1786 8.03564C8.99505 8.03564 8.03571 8.99499 8.03571 10.1785C8.03701 11.3614 8.9957 12.3201 10.1786 12.3214ZM10.4464 10.4464H9.91071C9.46694 10.4464 9.10713 10.0866 9.10713 9.64279C9.10713 9.19902 9.46694 8.83922 9.91071 8.83922V8.57136H10.4464V8.83922C10.8902 8.83922 11.25 9.19902 11.25 9.64279H10.7143C10.7143 9.49486 10.5943 9.37493 10.4464 9.37493H9.91071C9.76278 9.37493 9.64285 9.49486 9.64285 9.64279C9.64285 9.79071 9.76278 9.91064 9.91071 9.91064H10.4464C10.8902 9.91064 11.25 10.2704 11.25 10.7142C11.25 11.158 10.8902 11.5178 10.4464 11.5178V11.7856H9.91071V11.5178C9.46694 11.5178 9.10713 11.158 9.10713 10.7142H9.64285C9.64285 10.8621 9.76278 10.9821 9.91071 10.9821H10.4464C10.5943 10.9821 10.7143 10.8621 10.7143 10.7142C10.7143 10.5663 10.5943 10.4464 10.4464 10.4464Z"/></svg>