<svg xmlns="http://www.w3.org/2000/svg" width="15" height="15" fill="none" viewBox="0 0 15 15"><g clip-path="url(#clip0)"><path fill="#9795FF" d="M5.35645 4.22344L7.68354 0.734921C6.97648 0.314435 6.17796 0.0720322 5.35645 0.0281982V4.22344Z"/><path fill="#9795FF" d="M4.82072 4.99651V0.0313721C2.8625 0.13037 1.13626 1.34811 0.38628 3.15972C-0.363819 4.97122 -0.00364795 7.05281 1.3116 8.507L4.82072 4.99651Z"/><path fill="#9795FF" d="M5.62431 11.0008H7.49945V10.465C7.49945 10.3171 7.3795 10.1971 7.23152 10.1971H4.55284C4.40485 10.1971 4.28491 10.3171 4.28491 10.465V11.0008H4.55284C4.70071 11.0008 4.82065 11.1206 4.82065 11.2686C4.82065 11.4166 4.70071 11.5365 4.55284 11.5365H4.28491V12.3401H4.55284C4.70071 12.3401 4.82065 12.46 4.82065 12.608C4.82065 12.756 4.70071 12.8759 4.55284 12.8759H4.28491V13.6795H4.55284C4.70071 13.6795 4.82065 13.7994 4.82065 13.9474C4.82065 14.0953 4.70071 14.2152 4.55284 14.2152H4.28491V15.0189H7.49945V14.2152H5.62431C5.47633 14.2152 5.35639 14.0953 5.35639 13.9474C5.35639 13.7994 5.47633 13.6795 5.62431 13.6795H7.49945V12.8759H5.62431C5.47633 12.8759 5.35639 12.756 5.35639 12.608C5.35639 12.46 5.47633 12.3401 5.62431 12.3401H7.49945V11.5365H5.62431C5.47633 11.5365 5.35639 11.4166 5.35639 11.2686C5.35639 11.1206 5.47633 11.0008 5.62431 11.0008Z"/><path fill="#9795FF" d="M9.37467 4.30379H11.2498V3.76806C11.2498 3.62007 11.1298 3.50024 10.9819 3.50024H8.3032C8.15522 3.50024 8.03528 3.62007 8.03528 3.76806V4.30379H8.3032C8.45107 4.30379 8.57101 4.42373 8.57101 4.57172C8.57101 4.71958 8.45107 4.83953 8.3032 4.83953H8.03528V5.64319H8.3032C8.45107 5.64319 8.57101 5.76313 8.57101 5.91111C8.57101 6.05898 8.45107 6.17893 8.3032 6.17893H8.03528V6.98259H8.3032C8.45107 6.98259 8.57101 7.10253 8.57101 7.25051C8.57101 7.39838 8.45107 7.51832 8.3032 7.51832H8.03528V8.32198H8.3032C8.45107 8.32198 8.57101 8.44193 8.57101 8.5898C8.57101 8.73778 8.45107 8.85772 8.3032 8.85772H8.03528V9.66138H8.3032C8.45107 9.66138 8.57101 9.78133 8.57101 9.92919C8.57101 10.0772 8.45107 10.1971 8.3032 10.1971H8.03528V11.0008H8.3032C8.45107 11.0008 8.57101 11.1206 8.57101 11.2686C8.57101 11.4166 8.45107 11.5365 8.3032 11.5365H8.03528V12.3401H8.3032C8.45107 12.3401 8.57101 12.46 8.57101 12.608C8.57101 12.756 8.45107 12.8759 8.3032 12.8759H8.03528V13.6795H8.3032C8.45107 13.6795 8.57101 13.7994 8.57101 13.9474C8.57101 14.0953 8.45107 14.2152 8.3032 14.2152H8.03528V15.0189H11.2498V14.2152H9.37467C9.22668 14.2152 9.10674 14.0953 9.10674 13.9474C9.10674 13.7994 9.22668 13.6795 9.37467 13.6795H11.2498V12.8759H9.37467C9.22668 12.8759 9.10674 12.756 9.10674 12.608C9.10674 12.46 9.22668 12.3401 9.37467 12.3401H11.2498V11.5365H9.37467C9.22668 11.5365 9.10674 11.4166 9.10674 11.2686C9.10674 11.1206 9.22668 11.0008 9.37467 11.0008H11.2498V10.1971H9.37467C9.22668 10.1971 9.10674 10.0772 9.10674 9.92919C9.10674 9.78133 9.22668 9.66138 9.37467 9.66138H11.2498V8.85772H9.37467C9.22668 8.85772 9.10674 8.73778 9.10674 8.5898C9.10674 8.44193 9.22668 8.32198 9.37467 8.32198H11.2498V7.51832H9.37467C9.22668 7.51832 9.10674 7.39838 9.10674 7.25051C9.10674 7.10253 9.22668 6.98259 9.37467 6.98259H11.2498V6.17893H9.37467C9.22668 6.17893 9.10674 6.05898 9.10674 5.91111C9.10674 5.76313 9.22668 5.64319 9.37467 5.64319H11.2498V4.83953H9.37467C9.22668 4.83953 9.10674 4.71958 9.10674 4.57172C9.10674 4.42373 9.22668 4.30379 9.37467 4.30379Z"/><path fill="#9795FF" d="M13.1249 8.32197H15.0001V7.78624C15.0001 7.63825 14.8801 7.51831 14.7321 7.51831H12.0534C11.9055 7.51831 11.7855 7.63825 11.7855 7.78624V8.32197H12.0534C12.2013 8.32197 12.3213 8.44191 12.3213 8.58978C12.3213 8.73776 12.2013 8.85771 12.0534 8.85771H11.7855V9.66137H12.0534C12.2013 9.66137 12.3213 9.78131 12.3213 9.92918C12.3213 10.0772 12.2013 10.1971 12.0534 10.1971H11.7855V11.0008H12.0534C12.2013 11.0008 12.3213 11.1206 12.3213 11.2686C12.3213 11.4166 12.2013 11.5365 12.0534 11.5365H11.7855V12.34H12.0534C12.2013 12.34 12.3213 12.46 12.3213 12.608C12.3213 12.756 12.2013 12.8759 12.0534 12.8759H11.7855V13.6794H12.0534C12.2013 13.6794 12.3213 13.7994 12.3213 13.9474C12.3213 14.0952 12.2013 14.2152 12.0534 14.2152H11.7855V15.0188H15.0001V14.2152H13.1249C12.9769 14.2152 12.857 14.0952 12.857 13.9474C12.857 13.7994 12.9769 13.6794 13.1249 13.6794H15.0001V12.8759H13.1249C12.9769 12.8759 12.857 12.756 12.857 12.608C12.857 12.46 12.9769 12.34 13.1249 12.34H15.0001V11.5365H13.1249C12.9769 11.5365 12.857 11.4166 12.857 11.2686C12.857 11.1206 12.9769 11.0008 13.1249 11.0008H15.0001V10.1971H13.1249C12.9769 10.1971 12.857 10.0772 12.857 9.92918C12.857 9.78131 12.9769 9.66137 13.1249 9.66137H15.0001V8.85771H13.1249C12.9769 8.85771 12.857 8.73776 12.857 8.58978C12.857 8.44191 12.9769 8.32197 13.1249 8.32197Z"/><path fill="#9795FF" d="M8.12765 1.03564L5.46362 5.02705L7.49956 6.31289V3.768C7.49956 3.32417 7.85938 2.96434 8.30322 2.96434H9.70624C9.34802 2.20062 8.80553 1.53785 8.12765 1.03564Z"/><path fill="#9795FF" d="M1.68652 8.88743C2.30752 9.448 3.05808 9.84525 3.87078 10.0436C4.01636 9.80634 4.27456 9.66167 4.5529 9.66133H7.23158C7.32302 9.66213 7.41366 9.67884 7.4995 9.71054V6.94557L5.12663 5.44812L1.68652 8.88743Z"/></g><defs><clipPath id="clip0"><rect width="15" height="15" fill="#fff"/></clipPath></defs></svg>