<svg xmlns="http://www.w3.org/2000/svg" width="96" height="26" fill="none" viewBox="0 0 96 26"><path fill="#000" d="M4.47916 26C3.31249 26 2.32083 25.5917 1.50416 24.775C0.687494 23.9583 0.27916 22.9667 0.27916 21.8V5C0.27916 3.83333 0.687494 2.84167 1.50416 2.025C2.32083 1.20833 3.31249 0.799999 4.47916 0.799999H21.2792C22.4458 0.799999 23.4375 1.20833 24.2542 2.025C25.0708 2.84167 25.4792 3.83333 25.4792 5V21.8C25.4792 22.9667 25.0708 23.9583 24.2542 24.775C23.4375 25.5917 22.4458 26 21.2792 26H4.47916ZM4.47916 23.165H21.2792C21.6525 23.165 21.9675 23.0367 22.2242 22.78C22.5042 22.5 22.6442 22.1733 22.6442 21.8V5C22.6442 4.62667 22.5042 4.31166 22.2242 4.055C21.9675 3.775 21.6525 3.635 21.2792 3.635H4.47916C4.10583 3.635 3.77916 3.775 3.49916 4.055C3.24249 4.31166 3.11416 4.62667 3.11416 5V21.8C3.11416 22.1733 3.24249 22.5 3.49916 22.78C3.77916 23.0367 4.10583 23.165 4.47916 23.165ZM37.1615 26L27.9915 0.799999H31.0015L38.3865 21.03L45.7365 0.799999H49.1665L56.5515 21.03L63.8665 0.799999H66.9465L57.7765 26H55.2915L47.4515 4.475L39.6115 26H37.1615ZM74.3564 26C73.1897 26 72.1981 25.5917 71.3814 24.775C70.5647 23.9583 70.1564 22.9667 70.1564 21.8V20.82H72.9914V21.8C72.9914 22.1733 73.1197 22.5 73.3764 22.78C73.6564 23.0367 73.9831 23.165 74.3564 23.165H91.1564C91.5297 23.165 91.8447 23.0367 92.1014 22.78C92.3814 22.5 92.5214 22.1733 92.5214 21.8V16.165C92.5214 15.7917 92.3814 15.4767 92.1014 15.22C91.8447 14.9633 91.5297 14.835 91.1564 14.835H74.3564C73.1897 14.835 72.1981 14.4267 71.3814 13.61C70.5647 12.77 70.1564 11.7783 70.1564 10.635V5C70.1564 3.83333 70.5647 2.84167 71.3814 2.025C72.1981 1.20833 73.1897 0.799999 74.3564 0.799999H91.1564C92.3231 0.799999 93.3147 1.20833 94.1314 2.025C94.9481 2.84167 95.3564 3.83333 95.3564 5V5.98H92.5214V5C92.5214 4.62667 92.3814 4.31166 92.1014 4.055C91.8447 3.775 91.5297 3.635 91.1564 3.635H74.3564C73.9831 3.635 73.6564 3.775 73.3764 4.055C73.1197 4.31166 72.9914 4.62667 72.9914 5V10.635C72.9914 11.0083 73.1197 11.3233 73.3764 11.58C73.6564 11.8367 73.9831 11.965 74.3564 11.965H91.1564C92.3231 11.965 93.3147 12.385 94.1314 13.225C94.9481 14.0417 95.3564 15.0217 95.3564 16.165V21.8C95.3564 22.9667 94.9481 23.9583 94.1314 24.775C93.3147 25.5917 92.3231 26 91.1564 26H74.3564Z"/></svg>