<svg xmlns="http://www.w3.org/2000/svg" width="15" height="15" fill="none" viewBox="0 0 15 15"><path fill="#9795FF" d="M7.25 10.75H5.5V12.5H7.25V10.75Z"/><path fill="#9795FF" d="M7.25 6.25H5.5V8H7.25V6.25Z"/><path fill="#9795FF" d="M7.25 8.5H5.5V10.25H7.25V8.5Z"/><path fill="#9795FF" d="M5 8.5H3.25V10.25H5V8.5Z"/><path fill="#9795FF" d="M5 6.25H3.25V8H5V6.25Z"/><path fill="#9795FF" d="M5 10.75H3.25V12.5H5V10.75Z"/><path fill="#9795FF" d="M11.75 6.25H10V8H11.75V6.25Z"/><path fill="#9795FF" d="M14.25 1H12.5V0.25C12.5 0.11175 12.3883 0 12.25 0H10.5C10.3617 0 10.25 0.11175 10.25 0.25V1H4.75V0.25C4.75 0.11175 4.63825 0 4.5 0H2.75C2.61175 0 2.5 0.11175 2.5 0.25V1H0.75C0.61175 1 0.5 1.11175 0.5 1.25V4V14.75C0.5 14.8883 0.61175 15 0.75 15H14.25C14.3883 15 14.5 14.8883 14.5 14.75V4V1.25C14.5 1.11175 14.3883 1 14.25 1ZM12.25 8V8.5V10.25V10.75V13H10H9.5H7.75H7.25H5.5H5H2.75V10.75V10.25V8.5V8V5.75H5H5.5H7.25H7.75H9.5H10H12.25V8ZM14 3.75H1V1.5H2.5V2.25C2.5 2.38825 2.61175 2.5 2.75 2.5H4.5C4.63825 2.5 4.75 2.38825 4.75 2.25V1.5H10.25V2.25C10.25 2.38825 10.3617 2.5 10.5 2.5H12.25C12.3883 2.5 12.5 2.38825 12.5 2.25V1.5H14V3.75Z"/><path fill="#9795FF" d="M11.75 8.5H10V10.25H11.75V8.5Z"/><path fill="#9795FF" d="M11.75 10.75H10V12.5H11.75V10.75Z"/><path fill="#9795FF" d="M9.5 10.75H7.75V12.5H9.5V10.75Z"/><path fill="#9795FF" d="M9.5 8.5H7.75V10.25H9.5V8.5Z"/><path fill="#9795FF" d="M9.5 6.25H7.75V8H9.5V6.25Z"/></svg>