<svg xmlns="http://www.w3.org/2000/svg" width="15" height="15" fill="none" viewBox="0 0 15 15"><g clip-path="url(#clip0)"><path fill="#0DFF16" d="M6.30524 7.75828C8.36618 7.75828 10.0369 6.08754 10.0369 4.02661C10.0369 1.96568 8.3662 0.294922 6.30524 0.294922C4.24429 0.294922 2.57355 1.96566 2.57355 4.02659C2.57355 6.08752 4.24429 7.75828 6.30524 7.75828ZM8.11142 5.49857C7.94164 6.05985 7.21446 6.48178 6.34294 6.48178C5.4714 6.48178 4.74422 6.05985 4.57449 5.49857H8.11142ZM14.9077 11.802L11.4935 14.6474C11.3942 14.7302 11.2381 14.7231 11.1467 14.6317L9.44686 12.9316C9.34679 12.8315 9.34679 12.6677 9.44689 12.5676L9.81078 12.2037C9.91086 12.1036 10.0747 12.1036 10.1747 12.2037L11.3763 13.4051L14.2488 11.0113C14.3575 10.9207 14.5206 10.9355 14.6112 11.0443L14.9407 11.4396C15.0312 11.5483 15.0164 11.7114 14.9077 11.802ZM9.04647 13.3319L9.6939 13.9795C8.81029 14.1039 7.69652 14.1922 6.30527 14.1922C2.70716 14.1922 0.946348 13.6043 0.300809 13.3171C0.13424 13.2429 0 13.031 0 12.8487V11.6186C0 9.77539 1.40343 8.2462 3.19424 8.04137C3.24865 8.03514 3.32936 8.05843 3.3737 8.09056C4.19939 8.68833 5.21027 9.04507 6.30524 9.04507C7.40022 9.04507 8.4111 8.6883 9.23679 8.09056C9.28115 8.05843 9.36184 8.03514 9.41625 8.04137C11.2071 8.24617 12.6105 9.77536 12.6105 11.6186V11.6395L11.411 12.639L10.575 11.8034C10.4195 11.6478 10.2126 11.5621 9.99272 11.5621C9.77282 11.5621 9.56598 11.6478 9.41039 11.8034L9.04647 12.1673C8.72525 12.4885 8.72525 13.0108 9.04647 13.3319Z"/></g><defs><clipPath id="clip0"><rect width="15" height="15" fill="#fff"/></clipPath></defs></svg>