<svg xmlns="http://www.w3.org/2000/svg" width="15" height="15" fill="none" viewBox="0 0 15 15"><path fill="#9795FF" d="M14.75 4.00004C14.823 4.00004 14.8925 4.03203 14.9397 4.08728C14.9873 4.14277 15.0083 4.21601 14.997 4.28805L13.997 10.7881C13.9783 10.9101 13.8733 11.0001 13.75 11.0001H4.06427L4.40977 12.5001H5.02553V12.7383V13.0001H4.21078C4.0943 13.0001 3.99328 12.9198 3.96703 12.8063L3.50651 10.8063L2.00651 4.30628C2.00552 4.30203 2.00728 4.29755 2.00651 4.29303L1.65173 2.75251C1.47624 2.90477 1.24998 3.00001 0.99999 3.00001C0.448506 3.00001 0 2.55154 0 2.00002C0 1.44877 0.448506 1.00003 1.00002 1C1.5515 1 2.00001 1.44874 2.00001 1.99999C2.00001 2.00902 1.99752 2.01725 1.99726 2.02601L2.452 4.00004H14.75Z"/><path fill="#9795FF" d="M8 13.5C8 14.0523 7.55228 14.5 7 14.5C6.44772 14.5 6 14.0523 6 13.5C6 12.9477 6.44772 12.5 7 12.5C7.55228 12.5 8 12.9477 8 13.5Z"/><path fill="#9795FF" d="M12 13.5C12 14.0523 11.5523 14.5 11 14.5C10.4477 14.5 10 14.0523 10 13.5C10 12.9477 10.4477 12.5 11 12.5C11.5523 12.5 12 12.9477 12 13.5Z"/></svg>