<svg xmlns="http://www.w3.org/2000/svg" width="39" height="79" fill="none" viewBox="0 0 39 79"><path fill="#C9C8FF" d="M19.5 0C9.53549 0.194503 1.61158 8.42319 1.7931 18.3879C1.7931 31.995 15.3321 42.3195 18.7236 44.7031C19.1896 45.0298 19.8103 45.0298 20.2764 44.7031C23.6679 42.3195 37.2069 31.995 37.2069 18.3879C37.3884 8.42319 29.4645 0.194503 19.5 0ZM19.5 31.3276C11.9775 31.3276 5.8793 25.2294 5.8793 17.7069C5.8793 10.1844 11.9775 4.08621 19.5 4.08621C27.0225 4.08621 33.1207 10.1844 33.1207 17.7069C33.1087 25.2244 27.0175 31.3156 19.5 31.3276Z"/><path fill="#C9C8FF" d="M19.5 6.81033C13.482 6.81033 8.60345 11.6889 8.60345 17.7069C8.60345 23.7249 13.482 28.6034 19.5 28.6034C25.518 28.6034 30.3966 23.7249 30.3966 17.7069C30.3883 11.6923 25.5146 6.81859 19.5 6.81033ZM20.8621 24.2721V24.5172C20.8621 25.2695 20.2523 25.8793 19.5 25.8793C18.7478 25.8793 18.1379 25.2695 18.1379 24.5172V24.2448C17.2235 23.9335 16.4505 23.3055 15.9586 22.4741C15.5877 21.819 15.8123 20.9874 16.4626 20.6081C17.1136 20.2384 17.941 20.4635 18.315 21.1121C18.6452 21.6839 19.338 21.9366 19.9588 21.7116C20.5796 21.4865 20.9495 20.8486 20.8366 20.198C20.7236 19.5475 20.1603 19.0716 19.5 19.069C17.5223 19.0536 15.8394 17.6241 15.5045 15.6748C15.1696 13.7256 16.2788 11.8163 18.1379 11.1417V10.8965C18.1379 10.1443 18.7478 9.53447 19.5 9.53447C20.2523 9.53447 20.8621 10.1443 20.8621 10.8965V11.169C21.7765 11.4803 22.5495 12.1083 23.0414 12.9396C23.4123 13.5948 23.1877 14.4263 22.5374 14.8057C21.8864 15.1753 21.059 14.9502 20.685 14.3017C20.3548 13.7299 19.6621 13.4772 19.0413 13.7022C18.4205 13.9272 18.0505 14.5651 18.1634 15.2157C18.2764 15.8663 18.8397 16.3422 19.5 16.3448C21.4777 16.3602 23.1606 17.7897 23.4955 19.7389C23.8304 21.6882 22.7213 23.5974 20.8621 24.2721Z"/><path fill="#C9C8FF" d="M25.7519 49.0072C25.7487 49.6778 25.4793 50.3197 25.0028 50.7916C24.1051 51.6567 22.7164 51.7543 21.7066 51.0231C19.6087 49.4402 16.7937 49.1867 14.4467 50.3693L12.2538 51.4726C11.124 52.0448 9.74839 51.7561 8.94397 50.7779L5.64777 46.8552C7.35547 45.027 9.41169 43.5589 11.6954 42.5374C13.4274 44.1162 15.2561 45.5856 17.1709 46.9369C18.5688 47.9174 20.4312 47.9174 21.8291 46.9369C22.7145 46.324 24.0085 45.3705 25.5067 44.1038C25.3359 44.7065 25.2488 45.3298 25.2479 45.9562C25.2525 46.7199 25.3766 47.4783 25.6157 48.2036C25.7071 48.4616 25.7532 48.7335 25.7519 49.0072Z"/><path fill="#C9C8FF" d="M15.4138 73.5517C15.4268 72.4298 14.8089 71.3955 13.8147 70.8753L10.716 69.3211C8.26639 68.2021 6.48903 65.992 5.92154 63.3594C5.63317 62.1363 4.53427 61.2774 3.27776 61.2931H0.499146C1.10003 69.7139 7.1689 76.736 15.4138 78.5505V73.5517Z"/><path fill="#C9C8FF" d="M27.6724 66.7414V69.4655C27.7577 72.3592 27.1673 75.2329 25.948 77.8586C33.5153 75.143 38.5645 67.9708 38.5689 59.931H34.4827C30.7233 59.9355 27.6769 62.982 27.6724 66.7414Z"/><path fill="#C9C8FF" d="M22.1247 78.7889L22.9052 77.6733C24.4018 75.2075 25.1142 72.3452 24.9483 69.4655V66.7414C24.9543 61.4781 29.2195 57.2129 34.4828 57.2069H38.3524C37.5009 51.2804 33.9153 46.0979 28.6695 43.2116L28.1995 44.5955C27.8924 45.4869 27.8924 46.4555 28.1995 47.3469C28.833 49.2347 28.3363 51.3185 26.9192 52.7175C25.055 54.5167 22.1696 54.7221 20.0694 53.2051C18.7975 52.2403 17.0879 52.0819 15.6603 52.7965L13.4729 53.8957C11.212 55.0434 8.45765 54.4702 6.8423 52.5159L3.88797 48.9882C1.90697 51.8136 0.735205 55.1264 0.499146 58.569H3.27777C5.81952 58.5566 8.02836 60.3124 8.58984 62.7914C8.99418 64.6088 10.2386 66.1257 11.9419 66.8776L15.0338 68.4303C16.9773 69.4114 18.1847 71.4214 18.1379 73.598V78.9319C18.5901 78.9632 19.0396 79 19.5 79C20.3826 78.9933 21.2637 78.9255 22.137 78.7971L22.1247 78.7889Z"/><path fill="#C9C8FF" d="M19.5 0C9.53549 0.194503 1.61158 8.42319 1.7931 18.3879C1.7931 31.995 15.3321 42.3195 18.7236 44.7031C19.1896 45.0298 19.8103 45.0298 20.2764 44.7031C23.6679 42.3195 37.2069 31.995 37.2069 18.3879C37.3884 8.42319 29.4645 0.194503 19.5 0ZM19.5 31.3276C11.9775 31.3276 5.8793 25.2294 5.8793 17.7069C5.8793 10.1844 11.9775 4.08621 19.5 4.08621C27.0225 4.08621 33.1207 10.1844 33.1207 17.7069C33.1087 25.2244 27.0175 31.3156 19.5 31.3276Z"/><path fill="#C9C8FF" d="M19.5 6.81033C13.482 6.81033 8.60345 11.6889 8.60345 17.7069C8.60345 23.7249 13.482 28.6034 19.5 28.6034C25.518 28.6034 30.3966 23.7249 30.3966 17.7069C30.3883 11.6923 25.5146 6.81859 19.5 6.81033ZM20.8621 24.2721V24.5172C20.8621 25.2695 20.2523 25.8793 19.5 25.8793C18.7478 25.8793 18.1379 25.2695 18.1379 24.5172V24.2448C17.2235 23.9335 16.4505 23.3055 15.9586 22.4741C15.5877 21.819 15.8123 20.9874 16.4626 20.6081C17.1136 20.2384 17.941 20.4635 18.315 21.1121C18.6452 21.6839 19.338 21.9366 19.9588 21.7116C20.5796 21.4865 20.9495 20.8486 20.8366 20.198C20.7236 19.5475 20.1603 19.0716 19.5 19.069C17.5223 19.0536 15.8394 17.6241 15.5045 15.6748C15.1696 13.7256 16.2788 11.8163 18.1379 11.1417V10.8965C18.1379 10.1443 18.7478 9.53447 19.5 9.53447C20.2523 9.53447 20.8621 10.1443 20.8621 10.8965V11.169C21.7765 11.4803 22.5495 12.1083 23.0414 12.9396C23.4123 13.5948 23.1877 14.4263 22.5374 14.8057C21.8864 15.1753 21.059 14.9502 20.685 14.3017C20.3548 13.7299 19.6621 13.4772 19.0413 13.7022C18.4205 13.9272 18.0505 14.5651 18.1634 15.2157C18.2764 15.8663 18.8397 16.3422 19.5 16.3448C21.4777 16.3602 23.1606 17.7897 23.4955 19.7389C23.8304 21.6882 22.7213 23.5974 20.8621 24.2721Z"/></svg>