<svg xmlns="http://www.w3.org/2000/svg" width="15" height="15" fill="none" viewBox="0 0 15 15"><path fill="#0DFF16" d="M2.10938 7.96875H3.51562V8.90625H3.98438V6.5625H3.51562V7.5H2.10938V6.5625H1.64062V8.90625H2.10938V7.96875Z"/><path fill="#0DFF16" d="M2.57812 6.5625H3.04688V7.03125H2.57812V6.5625Z"/><path fill="#0DFF16" d="M2.57812 8.4375H3.04688V8.90625H2.57812V8.4375Z"/><path fill="#0DFF16" d="M8.38228 3.75004L7.73446 3.42614V2.99442L7.81204 2.92458C7.91329 2.8334 7.96884 2.71036 7.96884 2.57817V2.14926C7.96884 1.88208 7.76985 1.65426 7.5254 1.64137C7.3993 1.63411 7.27157 1.68004 7.17758 1.76934C7.08336 1.85887 7.03133 1.97958 7.03133 2.10942V2.57817C7.03133 2.71036 7.08688 2.8334 7.18813 2.92458L7.26571 2.99442V3.42614L6.61789 3.75004C6.51383 3.80208 6.4325 3.88481 6.38281 3.98442H8.61712C8.56767 3.88481 8.48634 3.80208 8.38228 3.75004Z"/><path fill="#0DFF16" d="M5.25891 8.90506L5.35125 8.39014L4.92188 8.09108V6.90866L5.35125 6.60983L5.25891 6.09491L5.51039 5.84319L1.91672 3.62366C1.12195 4.76483 0.703125 6.1003 0.703125 7.49999C0.703125 8.89967 1.12195 10.2351 1.91672 11.3761L5.51039 9.15655L5.25891 8.90506ZM4.45313 9.37499H1.17188V6.09374H4.45313V9.37499Z"/><path fill="#0DFF16" d="M6.09504 5.25891L6.60996 5.35125L6.90902 4.92188H8.09144L8.39027 5.35125L8.9052 5.25891L9.15668 5.51039L11.3762 1.91648C10.2353 1.12195 8.8998 0.703125 7.50012 0.703125C6.10043 0.703125 4.76496 1.12195 3.62402 1.91648L5.84355 5.51039L6.09504 5.25891ZM5.85949 4.21875C5.85949 3.84023 6.06973 3.49992 6.4084 3.3307L6.76301 3.15352C6.63434 2.98945 6.56262 2.78695 6.56262 2.57813V2.10938C6.56262 1.85344 6.66902 1.60547 6.85488 1.42922C7.04332 1.25063 7.28824 1.15992 7.55027 1.17328C8.04785 1.1993 8.43762 1.62797 8.43762 2.14922V2.57813C8.43762 2.78695 8.3659 2.98945 8.23746 3.15352L8.59207 3.3307C8.93051 3.49992 9.14074 3.84023 9.14074 4.21875V4.45313H5.85949V4.21875Z"/><path fill="#0DFF16" d="M8.74664 5.76352L8.17664 5.8657L7.84641 5.39062H7.15383L6.82336 5.8657L6.25336 5.76352L5.76352 6.25313L5.86594 6.82289L5.39062 7.15359V7.84617L5.8657 8.17664L5.76328 8.74664L6.25313 9.23648L6.82312 9.13406L7.15359 9.60938H7.84617L8.17664 9.1343L8.74664 9.23672L9.23648 8.74687L9.13406 8.17688L9.60938 7.84641V7.15383L9.1343 6.82312L9.23672 6.25336L8.74664 5.76352ZM7.5 8.67188C6.85383 8.67188 6.32812 8.14617 6.32812 7.5C6.32812 6.85383 6.85383 6.32812 7.5 6.32812C8.14617 6.32812 8.67188 6.85383 8.67188 7.5C8.67188 8.14617 8.14617 8.67188 7.5 8.67188Z"/><path fill="#0DFF16" d="M7.5 8.20312C7.88833 8.20312 8.20312 7.88833 8.20312 7.5C8.20312 7.11167 7.88833 6.79688 7.5 6.79688C7.11167 6.79688 6.79688 7.11167 6.79688 7.5C6.79688 7.88833 7.11167 8.20312 7.5 8.20312Z"/><path fill="#0DFF16" d="M5.85938 13.125C5.85938 13.2544 5.96438 13.3594 6.09375 13.3594H8.90625C9.03562 13.3594 9.14062 13.2544 9.14062 13.125V12.8906H5.85938V13.125Z"/><path fill="#0DFF16" d="M12.1875 5.625C11.412 5.625 10.7812 6.2557 10.7812 7.03125C10.7812 7.70625 11.239 8.04914 11.5418 8.20312H11.9531V7.69125C11.681 7.59422 11.4844 7.33641 11.4844 7.03125C11.4844 6.64359 11.7998 6.32812 12.1875 6.32812C12.5752 6.32812 12.8906 6.64359 12.8906 7.03125C12.8906 7.33641 12.694 7.59422 12.4219 7.69125V8.20312H12.8332C13.136 8.04914 13.5938 7.70625 13.5938 7.03125C13.5938 6.2557 12.963 5.625 12.1875 5.625Z"/><path fill="#0DFF16" d="M12.1875 7.26562C12.3169 7.26562 12.4219 7.16069 12.4219 7.03125C12.4219 6.90181 12.3169 6.79688 12.1875 6.79688C12.0581 6.79688 11.9531 6.90181 11.9531 7.03125C11.9531 7.16069 12.0581 7.26562 12.1875 7.26562Z"/><path fill="#0DFF16" d="M13.0832 3.62366L9.48926 5.84342L9.74074 6.09514L9.6484 6.61006L10.078 6.90889V8.09131L9.64863 8.39014L9.74098 8.90506L9.48949 9.15655L13.0832 11.3761C13.8779 10.2351 14.2968 8.89967 14.2968 7.49999C14.2968 6.1003 13.8779 4.76483 13.0832 3.62366ZM13.1249 8.57999V9.60936H11.2499V8.57999C10.6518 8.24506 10.3124 7.68795 10.3124 7.03124C10.3124 5.99741 11.1536 5.15624 12.1874 5.15624C13.2212 5.15624 14.0624 5.99741 14.0624 7.03124C14.0624 7.68795 13.723 8.2453 13.1249 8.57999Z"/><path fill="#0DFF16" d="M11.7188 8.67188H12.6562V9.14062H11.7188V8.67188Z"/><path fill="#0DFF16" d="M8.9052 9.74111L8.39027 9.64876L8.09121 10.0781H6.90879L6.60996 9.64876L6.09504 9.74111L5.84355 9.48962L3.62402 13.0833C4.44129 13.6526 5.35934 14.0252 6.32824 14.1928V13.8281H6.09387C5.70621 13.8281 5.39074 13.5127 5.39074 13.125V11.25C5.39074 10.8624 5.70621 10.5469 6.09387 10.5469H8.90637C9.29402 10.5469 9.60949 10.8624 9.60949 11.25V13.125C9.60949 13.5127 9.29402 13.8281 8.90637 13.8281H8.67199V14.1931C9.6409 14.0252 10.5589 13.6526 11.3762 13.0835L9.15668 9.48986L8.9052 9.74111Z"/><path fill="#0DFF16" d="M6.79688 14.2568C7.02938 14.2805 7.26328 14.2969 7.5 14.2969C7.73672 14.2969 7.97063 14.2805 8.20312 14.2568V13.8281H6.79688V14.2568Z"/><path fill="#0DFF16" d="M9.14062 11.25C9.14062 11.1206 9.03562 11.0156 8.90625 11.0156H6.09375C5.96438 11.0156 5.85938 11.1206 5.85938 11.25V12.4219H9.14062V11.25Z"/></svg>