<svg xmlns="http://www.w3.org/2000/svg" width="15" height="15" fill="none" viewBox="0 0 15 15"><path fill="#0DFF16" d="M8.03569 6.42857H9.77676C9.85073 6.42857 9.91069 6.36861 9.91069 6.29464V0.535714C9.91069 0.239847 9.67084 0 9.37498 0H1.15632C1.09642 9.22339e-05 1.04387 0.0399443 1.02762 0.0975953C1.01137 0.155246 1.03537 0.216677 1.08641 0.248036L5.08042 2.69625C5.41768 2.88535 5.62608 3.24227 5.62498 3.62893V10.0843C5.62507 10.2359 5.58236 10.3844 5.50176 10.5129L4.86239 11.5307C4.83559 11.5734 4.82139 11.6228 4.82141 11.6732V12.4554C4.82141 12.5293 4.88137 12.5893 4.95533 12.5893H6.29462C6.36859 12.5893 6.42855 12.5293 6.42855 12.4554V7.23214C6.42855 6.78834 6.78832 6.42857 7.23212 6.42857H8.03569Z"/><path fill="#0DFF16" d="M9.91071 8.83924C9.91071 8.98717 10.0306 9.1071 10.1786 9.1071H13.3928C13.5408 9.1071 13.6607 8.98717 13.6607 8.83924V7.09816C13.6607 7.0242 13.6007 6.96423 13.5268 6.96423H10.0446C9.97067 6.96423 9.91071 7.0242 9.91071 7.09816V8.83924Z"/><path fill="#0DFF16" d="M5.08929 10.0848V3.62948C5.089 3.43429 4.98259 3.25471 4.81152 3.16073L0.203839 0.335369C0.162483 0.310059 0.110677 0.309078 0.0683925 0.332804C0.0261079 0.35653 -5.10725e-05 0.401258 7.48674e-08 0.449744V12.626C4.14668e-05 12.6737 0.0254457 12.7178 0.0666965 12.7417L3.91286 14.9791C3.99281 15.015 4.08558 15.0076 4.15875 14.9593C4.23802 14.9111 4.28622 14.8249 4.28571 14.7322V11.6722C4.28566 11.5206 4.32837 11.372 4.40893 11.2436L5.0483 10.2257C5.07481 10.1835 5.08901 10.1347 5.08929 10.0848Z"/><path fill="#0DFF16" d="M8.30359 7.09816V8.83924C8.30359 8.98717 8.42351 9.1071 8.57145 9.1071H9.42431C9.39259 9.02132 9.37591 8.9307 9.37503 8.83924V7.09816C9.37503 7.0242 9.31506 6.96423 9.2411 6.96423H8.43752C8.36355 6.96423 8.30359 7.0242 8.30359 7.09816Z"/><path fill="#0DFF16" d="M13.5268 14.4642H8.43752C8.36355 14.4642 8.30359 14.5242 8.30359 14.5982V14.866C8.30359 14.94 8.36355 15 8.43752 15H13.5268C13.6008 15 13.6607 14.94 13.6607 14.866V14.5982C13.6607 14.5242 13.6008 14.4642 13.5268 14.4642Z"/><path fill="#0DFF16" d="M10.9821 10.7142C10.3904 10.7142 9.91071 11.1939 9.91071 11.7857C9.91071 12.3774 10.3904 12.8571 10.9821 12.8571C11.5739 12.8571 12.0536 12.3774 12.0536 11.7857C12.0536 11.1939 11.5739 10.7142 10.9821 10.7142ZM10.7143 11.7857C10.5663 11.7857 10.4464 11.6657 10.4464 11.5178C10.4464 11.3699 10.5663 11.2499 10.7143 11.2499C10.8622 11.2499 10.9821 11.3699 10.9821 11.5178C10.9821 11.6657 10.8622 11.7857 10.7143 11.7857Z"/><path fill="#0DFF16" d="M14.7322 6.96423H14.3304C14.2564 6.96423 14.1965 7.0242 14.1965 7.09816V8.83924C14.1965 9.28304 13.8367 9.64281 13.3929 9.64281H8.57144C8.12764 9.64281 7.76787 9.28304 7.76787 8.83924V7.09816C7.76787 7.0242 7.70791 6.96423 7.63394 6.96423H7.23215C7.08422 6.96423 6.96429 7.08416 6.96429 7.23209V14.7321C6.96429 14.8801 7.08422 15 7.23215 15H7.76787V14.4643C7.76787 14.1684 8.00772 13.9285 8.30358 13.9285H13.6607C13.9566 13.9285 14.1965 14.1684 14.1965 14.4643V15H14.7322C14.8801 15 15 14.8801 15 14.7321V7.23209C15 7.08416 14.8801 6.96423 14.7322 6.96423ZM10.9822 13.3928C10.0946 13.3928 9.37501 12.6733 9.37501 11.7857C9.37501 10.8981 10.0946 10.1785 10.9822 10.1785C11.8698 10.1785 12.5893 10.8981 12.5893 11.7857C12.5884 12.6729 11.8694 13.3919 10.9822 13.3928Z"/></svg>