<svg xmlns="http://www.w3.org/2000/svg" width="19" height="18" fill="none" viewBox="0 0 19 18"><path fill="#fff" d="M17.7018 9.79581H17.0424C16.8639 9.79581 16.6559 9.63909 16.588 9.45351C16.5252 9.28151 16.4513 9.11032 16.3687 8.94456C16.2808 8.76828 16.3132 8.51597 16.4393 8.39352L16.9087 7.93788C17.2376 7.61871 17.2376 7.0993 16.9087 6.7801L16.1468 6.04059C15.9875 5.88596 15.7757 5.80082 15.5504 5.80082C15.3251 5.80082 15.1133 5.88596 14.954 6.04059L14.4845 6.49624C14.4091 6.56937 14.2836 6.61303 14.1489 6.61303C14.0646 6.61303 13.9843 6.5963 13.917 6.56464C13.7461 6.48441 13.5695 6.41265 13.3919 6.35132C13.2007 6.28548 13.0393 6.08355 13.0393 5.91042V5.27032C13.0393 4.81896 12.6609 4.45166 12.1958 4.45166H11.118C10.6529 4.45166 10.2745 4.81896 10.2745 5.27032V5.91042C10.2745 6.08361 10.1131 6.28557 9.92196 6.35132C9.7446 6.41247 9.568 6.48405 9.39735 6.5641C9.3311 6.5952 9.2489 6.61232 9.16587 6.61232C9.03062 6.61232 8.90477 6.56856 8.82921 6.49526L8.36053 6.04053C8.20121 5.8859 7.98939 5.80076 7.764 5.80076C7.53871 5.80076 7.32689 5.8859 7.16757 6.04045L6.4049 6.78024C6.24548 6.93479 6.15777 7.14035 6.15768 7.35905C6.15768 7.57771 6.24539 7.7833 6.40471 7.93794L6.87416 8.39358C7.00041 8.51612 7.03284 8.76861 6.94494 8.94501C6.86256 9.11046 6.78881 9.28157 6.72593 9.45366C6.65809 9.63912 6.45013 9.79587 6.27167 9.79587H5.61227C5.14714 9.79587 4.7688 10.1632 4.7688 10.6145V11.6606C4.7688 12.112 5.14714 12.4793 5.61227 12.4793H6.27167C6.45013 12.4793 6.65818 12.6359 6.72602 12.8214C6.78881 12.993 6.86256 13.1642 6.94522 13.33C7.03306 13.5063 7.00053 13.7588 6.8742 13.8815L6.40474 14.3371C6.0759 14.6562 6.0759 15.1757 6.40474 15.4948L7.16773 16.2355C7.32705 16.3901 7.53886 16.4752 7.76416 16.4752C7.98945 16.4752 8.20127 16.3901 8.36059 16.2355L8.83004 15.7798C8.90557 15.7065 9.03135 15.6628 9.16648 15.6628C9.25073 15.6628 9.33076 15.6794 9.39796 15.711C9.56873 15.7911 9.74505 15.8627 9.92214 15.9237C10.1132 15.9896 10.2747 16.1915 10.2747 16.3647V17.0048C10.2747 17.4562 10.6531 17.8235 11.1182 17.8235H12.196C12.6611 17.8235 13.0394 17.4562 13.0394 17.0048V16.3647C13.0394 16.1915 13.2009 15.9896 13.392 15.9238C13.5694 15.8627 13.746 15.7911 13.9166 15.7111C13.9829 15.68 14.0651 15.6629 14.1481 15.6629C14.2833 15.6629 14.4091 15.7066 14.4847 15.7799L14.9541 16.2355C15.1134 16.3902 15.3251 16.4753 15.5504 16.4753C15.7758 16.4753 15.9876 16.3901 16.1469 16.2354L16.9092 15.4951C17.2378 15.1759 17.2378 14.6565 16.9091 14.3372L16.4401 13.8818C16.3139 13.7594 16.2815 13.5069 16.3694 13.3305C16.4518 13.1649 16.5255 12.9936 16.5885 12.8216C16.6562 12.6361 16.8642 12.4794 17.0427 12.4794H17.702C18.1672 12.4794 18.5455 12.1121 18.5455 11.6608V10.6147C18.5452 10.163 18.1668 9.79581 17.7018 9.79581ZM14.1287 11.1375C14.1287 12.4604 13.0198 13.5367 11.6569 13.5367C10.294 13.5367 9.18504 12.4604 9.18504 11.1375C9.18504 9.81465 10.294 8.73838 11.6569 8.73838C13.0198 8.73838 14.1287 9.81456 14.1287 11.1375Z"/><path fill="#fff" d="M6.5464 4.5435C6.56235 4.49992 6.61567 4.46318 6.64079 4.46318H6.97107C7.28111 4.46318 7.53338 4.21841 7.53338 3.91741V3.39437C7.53338 3.09339 7.28111 2.84859 6.97107 2.84859H6.64088C6.61577 2.84859 6.56244 2.81185 6.54652 2.76827C6.51335 2.67758 6.47445 2.58727 6.43087 2.50002C6.41053 2.45918 6.42131 2.39759 6.43893 2.38049L6.67371 2.15264C6.89291 1.93977 6.89291 1.59358 6.67371 1.38082L6.29274 1.01106C6.18656 0.907997 6.04531 0.851249 5.89511 0.851249C5.74488 0.851249 5.60363 0.908116 5.49745 1.01115L5.26278 1.23894C5.25546 1.24604 5.23035 1.2574 5.19427 1.2574C5.17375 1.2574 5.15387 1.2536 5.13963 1.24685C5.04959 1.20455 4.95661 1.16679 4.86325 1.13469C4.81826 1.11923 4.78041 1.06736 4.78041 1.04307V0.722534C4.78041 0.421525 4.52813 0.176758 4.21809 0.176758H3.67921C3.36917 0.176758 3.1169 0.421525 3.1169 0.722534V1.04307C3.1169 1.06745 3.07904 1.11911 3.03414 1.1346C2.94033 1.16688 2.84726 1.20473 2.75758 1.24685C2.74343 1.25348 2.72346 1.25731 2.70294 1.25731C2.66686 1.25731 2.64184 1.24604 2.63455 1.23894L2.39977 1.01115C2.29358 0.908086 2.15236 0.851338 2.00213 0.851338C1.85191 0.851338 1.71075 0.908086 1.60459 1.01115L1.22356 1.38091C1.00437 1.59378 1.00437 1.94007 1.22356 2.15282L1.45823 2.38058C1.47584 2.39767 1.48671 2.45927 1.46637 2.50002C1.42279 2.58736 1.3839 2.67767 1.35073 2.76836C1.3348 2.81194 1.28136 2.84877 1.25633 2.84877H0.926083C0.616075 2.84877 0.36377 3.09354 0.36377 3.39455V3.91758C0.36377 4.2185 0.615984 4.46336 0.925991 4.46336H1.25627C1.28139 4.46336 1.33471 4.5001 1.35067 4.54368C1.38383 4.63446 1.42273 4.72468 1.46631 4.81193C1.48665 4.85278 1.47587 4.91434 1.45826 4.93146L1.22347 5.15934C1.11729 5.2624 1.05882 5.3995 1.05882 5.54528C1.05882 5.69109 1.11729 5.8281 1.22356 5.93125L1.60453 6.30093C1.71072 6.40399 1.85194 6.46073 2.00216 6.46073C2.15239 6.46073 2.29355 6.40399 2.3997 6.30093L2.63449 6.07307C2.64178 6.06597 2.66693 6.05461 2.703 6.05461C2.72352 6.05461 2.7434 6.05842 2.75764 6.06514C2.84772 6.10744 2.9407 6.14519 3.03402 6.17729C3.07901 6.19275 3.11687 6.24459 3.11687 6.26888V6.58945C3.11687 6.89043 3.36917 7.13523 3.67918 7.13523H4.21806C4.5281 7.13523 4.78038 6.89046 4.78038 6.58945V6.26897C4.78038 6.24459 4.81823 6.19293 4.86313 6.17747C4.95657 6.14528 5.04953 6.10753 5.13951 6.06522C5.15375 6.05848 5.17372 6.05467 5.19424 6.05467C5.23032 6.05467 5.25534 6.06603 5.26275 6.07313L5.49754 6.30098C5.60372 6.40405 5.74495 6.46079 5.89517 6.46079C6.0454 6.46079 6.18656 6.40405 6.29271 6.30098L6.67368 5.93125C6.89288 5.71838 6.89288 5.37218 6.67368 5.15943L6.43902 4.93167C6.42138 4.91458 6.4105 4.85289 6.43084 4.81214C6.47445 4.72433 6.51332 4.63411 6.5464 4.5435ZM5.04392 3.65587C5.04392 4.24205 4.55257 4.71904 3.94864 4.71904C3.34461 4.71904 2.85326 4.24214 2.85326 3.65587C2.85326 3.06961 3.34461 2.59271 3.94864 2.59271C4.55254 2.59271 5.04392 3.06964 5.04392 3.65587Z"/></svg>