<svg xmlns="http://www.w3.org/2000/svg" width="15" height="15" fill="none" viewBox="0 0 15 15"><path fill="#9795FF" d="M9.7285 0H1.625V15H13.375V3.6465L9.7285 0ZM6.03125 10.4452L4.78125 11.4452C4.73525 11.482 4.68 11.5 4.625 11.5C4.56075 11.5 4.4965 11.4753 4.448 11.4268L3.948 10.9268C3.85025 10.829 3.85025 10.671 3.948 10.5732C4.04575 10.4755 4.20375 10.4755 4.3015 10.5732L4.64325 10.915L5.7185 10.0548C5.826 9.9685 5.98375 9.986 6.06975 10.0938C6.1565 10.2017 6.139 10.359 6.03125 10.4452ZM6.03125 7.69525L4.78125 8.69525C4.73525 8.732 4.68 8.75 4.625 8.75C4.56075 8.75 4.4965 8.72525 4.448 8.67675L3.948 8.17675C3.85025 8.079 3.85025 7.921 3.948 7.82325C4.04575 7.7255 4.20375 7.7255 4.3015 7.82325L4.64325 8.165L5.7185 7.30475C5.826 7.2185 5.98375 7.236 6.06975 7.34375C6.1565 7.45175 6.139 7.609 6.03125 7.69525ZM6.03125 4.94525L4.78125 5.94525C4.73525 5.982 4.68 6 4.625 6C4.56075 6 4.4965 5.97525 4.448 5.92675L3.948 5.42675C3.85025 5.329 3.85025 5.171 3.948 5.07325C4.04575 4.9755 4.20375 4.9755 4.3015 5.07325L4.64325 5.415L5.7185 4.55475C5.826 4.4685 5.98375 4.486 6.06975 4.59375C6.1565 4.70175 6.139 4.859 6.03125 4.94525ZM10.625 11.25H6.625C6.487 11.25 6.375 11.1383 6.375 11C6.375 10.8617 6.487 10.75 6.625 10.75H10.625C10.763 10.75 10.875 10.8617 10.875 11C10.875 11.1383 10.763 11.25 10.625 11.25ZM10.625 8.5H6.625C6.487 8.5 6.375 8.38825 6.375 8.25C6.375 8.11175 6.487 8 6.625 8H10.625C10.763 8 10.875 8.11175 10.875 8.25C10.875 8.38825 10.763 8.5 10.625 8.5ZM10.625 5.75H6.625C6.487 5.75 6.375 5.63825 6.375 5.5C6.375 5.36175 6.487 5.25 6.625 5.25H10.625C10.763 5.25 10.875 5.36175 10.875 5.5C10.875 5.63825 10.763 5.75 10.625 5.75ZM9.375 4V0.5L12.875 4H9.375Z"/></svg>