<svg xmlns="http://www.w3.org/2000/svg" width="15" height="15" fill="none" viewBox="0 0 15 15"><path fill="#fff" d="M13.6844 12.7632H12.8949V12.2369H13.6844C14.1204 12.2369 14.4739 11.8834 14.4739 11.4474V10.9211C14.4739 10.4851 14.1204 10.1316 13.6844 10.1316H8.42126C7.69488 10.1307 7.10637 9.54222 7.10547 8.81584V8.02637H7.63178V8.81584C7.63178 9.25182 7.98527 9.60531 8.42126 9.60531H13.6844C14.4108 9.60621 14.9993 10.1947 15.0002 10.9211V11.4474C14.9993 12.1738 14.4108 12.7623 13.6844 12.7632Z"/><path fill="#fff" d="M11.0527 0.39475V2.76317H12.1538C12.1226 2.67888 12.1063 2.58983 12.1054 2.50001V0.39475C12.1054 0.249422 11.9875 0.131592 11.8422 0.131592H11.3159C11.1706 0.131592 11.0527 0.249422 11.0527 0.39475Z"/><path fill="#fff" d="M12.6318 2.49999C12.6318 2.64532 12.7497 2.76315 12.895 2.76315H13.4213C13.5666 2.76315 13.6845 2.64532 13.6845 2.49999V1.1842H12.6318V2.49999Z"/><path fill="#fff" d="M3.68457 0.39475V7.50001H10.5267V0.39475C10.5276 0.304932 10.5439 0.215885 10.5751 0.131592H3.94773C3.8024 0.131592 3.68457 0.249422 3.68457 0.39475ZM9.47404 6.18422H7.36878V5.65791H9.47404V6.18422ZM9.47404 4.07896H6.84246V3.55264H9.47404V4.07896ZM9.47404 3.02633H7.8951V2.50001H9.47404V3.02633ZM6.31615 1.44738H9.47404V1.9737H6.31615V1.44738ZM4.7372 1.44738H5.78983V1.9737H4.7372V1.44738ZM4.7372 2.50001H7.36878V3.02633H4.7372V2.50001ZM4.7372 3.55264H6.31615V4.07896H4.7372V3.55264ZM4.7372 4.60528H9.47404V5.13159H4.7372V4.60528ZM4.7372 5.65791H6.84246V6.18422H4.7372V5.65791Z"/><path fill="#fff" d="M0.263158 14.8684H11.3158C11.4611 14.8684 11.5789 14.7506 11.5789 14.6053V11.7105C11.5789 11.5652 11.4611 11.4474 11.3158 11.4474H0.263158C0.11783 11.4474 0 11.5652 0 11.7105V14.6053C0 14.7506 0.11783 14.8684 0.263158 14.8684ZM9.47368 14.6053H2.10526V14.079H9.47368V14.6053ZM10 14.079H10.5263V13.2895H11.0526V14.3421C11.0526 14.4875 10.9348 14.6053 10.7895 14.6053H10V14.079ZM9.21053 11.9737H9.73684V12.5H9.21053V11.9737ZM9.21053 13.0263H9.73684V13.5527H9.21053V13.0263ZM8.15789 11.9737H8.68421V12.5H8.15789V11.9737ZM8.15789 13.0263H8.68421V13.5527H8.15789V13.0263ZM7.10526 11.9737H7.63158V12.5H7.10526V11.9737ZM7.10526 13.0263H7.63158V13.5527H7.10526V13.0263ZM6.05263 11.9737H6.57895V12.5H6.05263V11.9737ZM6.05263 13.0263H6.57895V13.5527H6.05263V13.0263ZM5 11.9737H5.52632V12.5H5V11.9737ZM5 13.0263H5.52632V13.5527H5V13.0263ZM3.94737 11.9737H4.47368V12.5H3.94737V11.9737ZM3.94737 13.0263H4.47368V13.5527H3.94737V13.0263ZM2.89474 11.9737H3.42105V12.5H2.89474V11.9737ZM2.89474 13.0263H3.42105V13.5527H2.89474V13.0263ZM1.84211 11.9737H2.36842V12.5H1.84211V11.9737ZM1.84211 13.0263H2.36842V13.5527H1.84211V13.0263ZM0.789474 11.9737H1.31579V12.5H0.789474V11.9737ZM0.789474 13.0263H1.31579V13.5527H0.789474V13.0263ZM0.526316 14.079H1.57895V14.6053H0.526316V14.079Z"/><path fill="#fff" d="M12.1055 12.2368H12.3686V12.7631H12.1055V12.2368Z"/></svg>