<svg xmlns="http://www.w3.org/2000/svg" width="190" height="190" fill="none" viewBox="0 0 190 190"><path fill="#fff" d="M190 95C190 42.6187 147.381 0 95 0C42.6187 0 0 42.6187 0 95C0 122.667 11.8975 147.606 30.8353 164.982L30.7455 165.062L33.8269 167.659C34.0273 167.829 34.2449 167.967 34.4453 168.133C36.0827 169.49 37.7789 170.779 39.5062 172.026C40.0658 172.43 40.6255 172.834 41.1955 173.228C43.0402 174.499 44.9333 175.705 46.8678 176.849C47.2893 177.097 47.7142 177.339 48.1391 177.581C50.2567 178.787 52.4193 179.923 54.6336 180.966C54.796 181.042 54.9618 181.111 55.1242 181.187C62.3407 184.542 70.0444 187.005 78.1004 188.459C78.3111 188.497 78.5218 188.535 78.736 188.573C81.2371 189.005 83.7658 189.351 86.3256 189.582C86.6366 189.61 86.9475 189.627 87.2618 189.655C89.8113 189.865 92.3884 190 95 190C97.5875 190 100.14 189.865 102.676 189.661C102.997 189.634 103.319 189.617 103.64 189.589C106.179 189.357 108.687 189.022 111.164 188.597C111.378 188.559 111.596 188.521 111.81 188.48C119.745 187.057 127.338 184.649 134.461 181.381C134.724 181.26 134.99 181.146 135.252 181.022C137.384 180.02 139.467 178.939 141.509 177.788C142.016 177.501 142.521 177.211 143.025 176.914C144.884 175.819 146.711 174.676 148.487 173.46C149.126 173.024 149.751 172.565 150.383 172.109C151.9 171.017 153.389 169.891 154.836 168.713C155.157 168.454 155.503 168.229 155.817 167.963L158.978 165.324L158.885 165.245C177.989 147.861 190 122.809 190 95ZM6.90909 95C6.90909 46.4256 46.4256 6.90909 95 6.90909C143.574 6.90909 183.091 46.4256 183.091 95C183.091 121.175 171.605 144.707 153.42 160.854C152.404 160.153 151.382 159.524 150.335 158.999L121.085 144.376C118.46 143.063 116.829 140.424 116.829 137.491V127.276C117.506 126.44 118.221 125.493 118.961 124.453C122.747 119.106 125.783 113.157 127.998 106.756C132.375 104.676 135.201 100.317 135.201 95.3938V83.1475C135.201 80.1524 134.102 77.2471 132.136 74.9636V58.8413C132.316 57.0449 132.952 46.93 125.631 38.5838C119.265 31.3155 108.96 27.6364 95 27.6364C81.0402 27.6364 70.7353 31.3155 64.3685 38.5804C57.0484 46.9265 57.684 57.0484 57.8636 58.8378V74.9602C55.9015 77.2436 54.7995 80.1489 54.7995 83.144V95.3904C54.7995 99.1938 56.506 102.742 59.4285 105.136C62.2267 116.097 67.9855 124.395 70.1135 127.207V137.204C70.1135 140.023 68.5762 142.614 66.0993 143.968L38.7842 158.868C37.9136 159.341 37.05 159.894 36.1864 160.512C18.2262 144.372 6.90909 120.985 6.90909 95Z"/></svg>