<svg xmlns="http://www.w3.org/2000/svg" width="12" height="12" fill="none" viewBox="0 0 12 12"><path fill="#fff" d="M9.89215 3.38465H2.10774C2.02353 3.37749 1.94008 3.40532 1.87697 3.46156C1.81493 3.52116 1.78619 3.60744 1.80006 3.69233L2.60003 10.6614C2.69384 11.4297 3.34902 12.0055 4.12305 11.9998H7.99987C8.79569 12.0111 9.46603 11.4078 9.53829 10.6152L10.1998 3.66156C10.2039 3.58698 10.1759 3.51418 10.1229 3.46156C10.0598 3.40532 9.97637 3.37749 9.89215 3.38465ZM8.92295 10.5845C8.8746 11.0529 8.47048 11.4031 7.9999 11.3844H4.12308C3.66095 11.4032 3.26372 11.0598 3.2154 10.5998L2.4462 4.00002H9.55369L8.92295 10.5845Z"/><path fill="#fff" d="M11.0152 1.38475H7.84604V0.892433C7.86312 0.416934 7.4915 0.0176417 7.016 0.000562788C7.0004 3.30717e-06 6.98476 -0.000143925 6.96915 0.000150539H5.03073C4.555 -0.00865392 4.16224 0.369849 4.15344 0.845584C4.15314 0.861191 4.15329 0.876827 4.15385 0.892433V1.38472H0.984687C0.814752 1.38472 0.677002 1.52247 0.677002 1.6924C0.677002 1.86234 0.814752 2.00009 0.984687 2.00009H11.0152C11.1851 2.00009 11.3229 1.86234 11.3229 1.6924C11.3229 1.52247 11.1851 1.38475 11.0152 1.38475ZM7.23067 0.892433V1.38472H4.76919V0.892433C4.75184 0.757599 4.8471 0.634248 4.98194 0.616904C4.9981 0.614813 5.01445 0.614372 5.0307 0.61552H6.96912C7.10472 0.605921 7.22245 0.70804 7.23205 0.84367C7.23323 0.859925 7.23276 0.876267 7.23067 0.892433Z"/></svg>