<svg width="13" height="13" viewBox="0 0 13 13" fill="none" xmlns="http://www.w3.org/2000/svg">
<g opacity="0.5">
<path d="M12.4922 5.33332C12.7727 5.33332 13 5.106 13 4.82551V3.32617C13 2.20611 12.0888 1.29492 10.9688 1.29492H4.0625C2.94244 1.29492 2.03125 2.20611 2.03125 3.32617V3.32746H1.77298C0.795341 3.32746 0 4.11993 0 5.09399V9.93983C0 10.9139 0.795341 11.7064 1.77298 11.7064H9.19577C10.1734 11.7064 10.9688 10.9139 10.9688 9.93983V9.39582C12.0888 9.39582 13 8.48463 13 7.36457C13 7.08408 12.7727 6.85676 12.4922 6.85676C12.2117 6.85676 11.9844 7.08408 11.9844 7.36457C11.9844 7.92455 11.5287 8.3802 10.9688 8.3802V5.09399C10.9688 4.11993 10.1734 3.32746 9.19577 3.32746H3.04688V3.32617C3.04688 2.76619 3.50252 2.31055 4.0625 2.31055H10.9688C11.5287 2.31055 11.9844 2.76619 11.9844 3.32617V4.82551C11.9844 5.106 12.2117 5.33332 12.4922 5.33332ZM9.19577 10.6907H1.77298C1.35542 10.6907 1.01562 10.3539 1.01562 9.93983V5.59308L4.54909 7.77895C4.83751 7.95738 5.16094 8.04655 5.48438 8.04655C5.80781 8.04655 6.13124 7.95738 6.41966 7.77895L9.95312 5.59308V9.93993C9.95312 10.3539 9.61333 10.6907 9.19577 10.6907ZM9.7137 4.54691L5.88537 6.91518C5.64178 7.06583 5.32697 7.06583 5.08338 6.91518L1.25505 4.54691C1.39063 4.42065 1.57283 4.34309 1.77298 4.34309H9.19577C9.39592 4.34309 9.57812 4.42065 9.7137 4.54691Z" fill="white"/>
</g>
</svg>
