<svg width="12" height="12" viewBox="0 0 12 12" fill="none" xmlns="http://www.w3.org/2000/svg">
<path fill-rule="evenodd" clip-rule="evenodd" d="M8 6C8 6.53043 7.78929 7.03914 7.41421 7.41421C7.03914 7.78929 6.53043 8 6 8C5.46957 8 4.96086 7.78929 4.58579 7.41421C4.21071 7.03914 4 6.53043 4 6C4 5.46957 4.21071 4.96086 4.58579 4.58579C4.96086 4.21071 5.46957 4 6 4C6.53043 4 7.03914 4.21071 7.41421 4.58579C7.78929 4.96086 8 5.46957 8 6ZM7 6C7 6.26522 6.89464 6.51957 6.70711 6.70711C6.51957 6.89464 6.26522 7 6 7C5.73478 7 5.48043 6.89464 5.29289 6.70711C5.10536 6.51957 5 6.26522 5 6C5 5.73478 5.10536 5.48043 5.29289 5.29289C5.48043 5.10536 5.73478 5 6 5C6.26522 5 6.51957 5.10536 6.70711 5.29289C6.89464 5.48043 7 5.73478 7 6Z" fill="white"/>
<path fill-rule="evenodd" clip-rule="evenodd" d="M5.99996 1.5C8.79546 1.5 11.145 3.412 11.811 6C11.145 8.588 8.79597 10.5 5.99996 10.5C3.20396 10.5 0.854965 8.588 0.188965 6C0.854965 3.412 3.20396 1.5 5.99996 1.5ZM5.99996 9.5C3.76196 9.5 1.86546 8.029 1.22846 6C1.86546 3.971 3.76196 2.5 5.99996 2.5C8.23796 2.5 10.1345 3.971 10.7715 6C10.1345 8.029 8.23796 9.5 5.99996 9.5Z" fill="white"/>
</svg>
