<svg width="15" height="15" viewBox="0 0 15 15" fill="none" xmlns="http://www.w3.org/2000/svg">
<path d="M14.8167 13.9333L10.5511 9.66771C11.3774 8.64711 11.8749 7.35023 11.8749 5.93776C11.8749 2.66404 9.21114 0.000305176 5.93742 0.000305176C2.6637 0.000305176 0 2.66401 0 5.93773C0 9.21144 2.66373 11.8752 5.93745 11.8752C7.34993 11.8752 8.6468 11.3777 9.66741 10.5514L13.933 14.817C14.0549 14.9389 14.2149 15.0002 14.3749 15.0002C14.5349 15.0002 14.6949 14.9389 14.8168 14.817C15.0611 14.5727 15.0611 14.1777 14.8167 13.9333ZM5.93745 10.6252C3.35247 10.6252 1.25 8.52271 1.25 5.93773C1.25 3.35274 3.35247 1.25027 5.93745 1.25027C8.52244 1.25027 10.6249 3.35274 10.6249 5.93773C10.6249 8.52271 8.52241 10.6252 5.93745 10.6252Z" fill="white"/>
</svg>
