<svg width="48" height="20" viewBox="0 0 48 20" fill="none" xmlns="http://www.w3.org/2000/svg">
<rect width="48" height="20" rx="3" fill="#00A3D7"/>
<path d="M28.2676 10.406H27.3396C27.4342 10.665 27.4859 10.9445 27.4859 11.2358V14.7432C27.4859 14.8647 27.4647 14.9812 27.4263 15.0897H28.9605C29.5336 15.0897 29.9998 14.6234 29.9998 14.0503V12.1383C29.9999 11.1831 29.2228 10.406 28.2676 10.406Z" fill="white"/>
<path d="M20.514 11.2358C20.514 10.9445 20.5657 10.665 20.6603 10.406H19.7323C18.7771 10.406 18 11.1831 18 12.1383V14.0503C18 14.6234 18.4662 15.0897 19.0394 15.0897H20.5736C20.5352 14.9812 20.514 14.8647 20.514 14.7432V11.2358Z" fill="white"/>
<path d="M25.0607 9.50342H22.9391C21.9839 9.50342 21.2068 10.2805 21.2068 11.2357V14.7431C21.2068 14.9344 21.3619 15.0896 21.5532 15.0896H26.4465C26.6378 15.0896 26.7929 14.9345 26.7929 14.7431V11.2357C26.7929 10.2805 26.0158 9.50342 25.0607 9.50342Z" fill="white"/>
<path d="M24.0003 4.9104C22.8515 4.9104 21.917 5.84495 21.917 6.99369C21.917 7.77287 22.347 8.45338 22.9822 8.81067C23.2834 8.98012 23.6307 9.07696 24.0003 9.07696C24.3698 9.07696 24.7171 8.98012 25.0184 8.81067C25.6535 8.45338 26.0835 7.77285 26.0835 6.99369C26.0835 5.84497 25.149 4.9104 24.0003 4.9104Z" fill="white"/>
<path d="M20.3419 6.85205C19.4828 6.85205 18.7839 7.55096 18.7839 8.41006C18.7839 9.26917 19.4828 9.96807 20.3419 9.96807C20.5599 9.96807 20.7674 9.92293 20.9559 9.84179C21.2818 9.70147 21.5506 9.45308 21.7168 9.14195C21.8336 8.92358 21.9 8.67446 21.9 8.41006C21.9 7.55098 21.201 6.85205 20.3419 6.85205Z" fill="white"/>
<path d="M27.6584 6.85205C26.7992 6.85205 26.1003 7.55096 26.1003 8.41006C26.1003 8.67448 26.1667 8.9236 26.2835 9.14195C26.4497 9.4531 26.7185 9.70149 27.0444 9.84179C27.2329 9.92293 27.4404 9.96807 27.6584 9.96807C28.5175 9.96807 29.2164 9.26917 29.2164 8.41006C29.2164 7.55096 28.5175 6.85205 27.6584 6.85205Z" fill="white"/>
</svg>
