<svg xmlns="http://www.w3.org/2000/svg" width="12" height="12" fill="none" viewBox="0 0 12 12"><path fill="#fff" d="M10.3301 0.824034C9.72523 0.220276 8.7458 0.220276 8.14098 0.824034L7.593 1.37501L1.75987 7.20504L1.74748 7.21753C1.74448 7.22053 1.74448 7.22373 1.74128 7.22373C1.73508 7.23303 1.72578 7.24223 1.71968 7.25153C1.71968 7.25463 1.71649 7.25463 1.71649 7.25772C1.71029 7.26702 1.70729 7.27322 1.70099 7.28252C1.69799 7.28562 1.69799 7.28862 1.69489 7.29182C1.69179 7.30111 1.68869 7.30731 1.68549 7.31661C1.68549 7.31961 1.68249 7.31961 1.68249 7.32281L0.388296 11.2146C0.350331 11.3254 0.379192 11.4481 0.462579 11.5303C0.521173 11.5881 0.600202 11.6205 0.682427 11.6202C0.716034 11.6196 0.74935 11.6144 0.781504 11.6047L4.67029 10.3074C4.67329 10.3074 4.67329 10.3074 4.67649 10.3044C4.68627 10.3015 4.69566 10.2973 4.70428 10.2919C4.7067 10.2916 4.70884 10.2906 4.71058 10.2889C4.71978 10.2827 4.73218 10.2764 4.74147 10.2702C4.75067 10.2641 4.76007 10.2548 4.76937 10.2486C4.77246 10.2454 4.77547 10.2454 4.77547 10.2424C4.77866 10.2393 4.78486 10.2363 4.78796 10.23L11.1691 3.84892C11.7728 3.2441 11.7728 2.26467 11.1691 1.65994L10.3301 0.824034ZM4.57121 9.57978L2.41632 7.42498L7.80975 2.03155L9.96465 4.18635L4.57121 9.57978ZM2.11279 7.99775L3.99535 9.88021L1.16851 10.8214L2.11279 7.99775ZM10.7326 3.41543L10.4043 3.74675L8.24935 1.59176L8.58077 1.26053C8.94327 0.898317 9.53086 0.898317 9.89346 1.26053L10.7356 2.10264C11.0954 2.46679 11.094 3.05302 10.7326 3.41543Z"/></svg>