<svg width="13" height="13" viewBox="0 0 13 13" fill="none" xmlns="http://www.w3.org/2000/svg">
<g opacity="0.5" clip-path="url(#clip0)">
<path d="M9.34354 13C8.9239 13 8.50782 12.9258 8.10095 12.778C6.30849 12.1269 4.64471 11.0663 3.28942 9.71106C1.93412 8.35579 0.8736 6.69198 0.222484 4.89953C0.0132482 4.32349 -0.0484993 3.72887 0.0390186 3.13211C0.121002 2.57313 0.337524 2.03048 0.665202 1.56281C0.994327 1.09307 1.43311 0.702377 1.9341 0.432969C2.46834 0.145685 3.05147 0 3.66732 0C3.85886 0 4.0244 0.133829 4.06454 0.321102L4.70217 3.29674C4.73104 3.43148 4.68963 3.57168 4.59221 3.66912L3.50267 4.75864C4.53049 6.80215 6.19828 8.46994 8.24178 9.49776L9.3313 8.40822C9.42872 8.3108 9.56895 8.26944 9.70369 8.29826L12.6793 8.93589C12.8666 8.97603 13.0004 9.14157 13.0004 9.33311C13.0004 9.94896 12.8547 10.5321 12.5674 11.0664C12.298 11.5673 11.9073 12.0061 11.4376 12.3352C10.9699 12.6629 10.4273 12.8795 9.86829 12.9614C9.69313 12.9872 9.51799 13 9.34354 13ZM3.34274 0.830239C2.5304 0.919915 1.80938 1.3457 1.33059 2.02906C0.792175 2.79748 0.666624 3.7426 0.986126 4.62215C2.23793 8.06817 4.9323 10.7625 8.37833 12.0144C9.25785 12.3339 10.203 12.2083 10.9714 11.6699C11.6548 11.1911 12.0806 10.4701 12.1702 9.65774L9.74957 9.13903L8.61171 10.2769C8.49063 10.398 8.30665 10.4301 8.15173 10.3573C5.73489 9.2219 3.77857 7.26558 2.64315 4.84875C2.57036 4.6938 2.6025 4.50982 2.72359 4.38877L3.86145 3.25091L3.34274 0.830239Z" fill="white"/>
<path d="M12.5937 6.90597C12.3694 6.90597 12.1875 6.72408 12.1875 6.49973C12.1875 3.36376 9.6362 0.812467 6.50023 0.812467C6.27588 0.812467 6.09399 0.630576 6.09399 0.406233C6.09399 0.181891 6.27588 0 6.50023 0C8.23639 0 9.86861 0.676074 11.0962 1.90371C12.3239 3.13135 13 4.76357 13 6.49973C13 6.72408 12.8181 6.90597 12.5937 6.90597Z" fill="white"/>
<path d="M10.9688 6.9053C10.7445 6.9053 10.5626 6.72341 10.5626 6.49907C10.5626 4.2591 8.7402 2.43673 6.50023 2.43673C6.27588 2.43673 6.09399 2.25484 6.09399 2.0305C6.09399 1.80616 6.27588 1.62427 6.50023 1.62427C9.1882 1.62427 11.375 3.8111 11.375 6.49907C11.375 6.72341 11.1932 6.9053 10.9688 6.9053Z" fill="white"/>
<path d="M9.34386 6.90659C9.11952 6.90659 8.93763 6.7247 8.93763 6.50035C8.93763 5.15636 7.84423 4.06295 6.50023 4.06295C6.27588 4.06295 6.09399 3.88106 6.09399 3.65672C6.09399 3.43238 6.27588 3.25049 6.50023 3.25049C8.29222 3.25049 9.75009 4.70836 9.75009 6.50035C9.75009 6.7247 9.56823 6.90659 9.34386 6.90659Z" fill="white"/>
</g>
<defs>
<clipPath id="clip0">
<rect width="13" height="13" fill="white"/>
</clipPath>
</defs>
</svg>
