<svg id="SvgjsSvg1001" width="288" height="288" xmlns="http://www.w3.org/2000/svg" version="1.1" xmlns:xlink="http://www.w3.org/1999/xlink" xmlns:svgjs="http://svgjs.com/svgjs"><defs id="SvgjsDefs1002"></defs><g id="SvgjsG1008" transform="matrix(0.9167,0,0,0.9167,11.99605351486207,11.995198728942881)"><svg xmlns="http://www.w3.org/2000/svg" viewBox="0 0 24 24" width="288" height="288"><path d="M16.29,14.29,12,18.59l-4.29-4.3a1,1,0,0,0-1.42,1.42l5,5a1,1,0,0,0,1.42,0l5-5a1,1,0,0,0-1.42-1.42ZM7.71,9.71,12,5.41l4.29,4.3a1,1,0,0,0,1.42,0,1,1,0,0,0,0-1.42l-5-5a1,1,0,0,0-1.42,0l-5,5A1,1,0,0,0,7.71,9.71Z" fill="#ffffff" class="color000 svgShape"></path></svg></g></svg>