<svg xmlns="http://www.w3.org/2000/svg" width="23" height="23" fill="none" viewBox="0 0 23 23"><path fill="#5C63FF" d="M21.3374 2.32681C21.0645 2.09984 20.7352 1.95109 20.3846 1.89642C20.0339 1.84174 19.675 1.88318 19.346 2.01631L2.17167 8.94985C1.80449 9.10098 1.49194 9.36018 1.27548 9.69306C1.05903 10.0259 0.948899 10.4168 0.959711 10.8137C0.970522 11.2106 1.10176 11.5949 1.33602 11.9155C1.57028 12.2361 1.89648 12.4779 2.27134 12.6088L5.7453 13.8172L7.68113 20.2208C7.70766 20.3062 7.74605 20.3875 7.79517 20.4623C7.80284 20.4738 7.81338 20.4815 7.82105 20.4939C7.87752 20.5725 7.94572 20.642 8.02326 20.7C8.0449 20.7169 8.06728 20.7329 8.09034 20.7479C8.18111 20.8081 8.28162 20.8522 8.38742 20.8782L8.39988 20.8792L8.40563 20.8821C8.46968 20.8949 8.53485 20.9013 8.60017 20.9012L8.61742 20.8984C8.71557 20.8967 8.81288 20.8799 8.90588 20.8485C8.92792 20.8409 8.94613 20.8294 8.96722 20.8198C9.03679 20.7912 9.10273 20.7546 9.16367 20.7105C9.21221 20.6693 9.26077 20.6281 9.30934 20.5869L11.8988 17.7282L15.7608 20.7201C16.1008 20.9849 16.5192 21.1289 16.9501 21.1293C17.4017 21.1288 17.8394 20.973 18.1898 20.6881C18.5402 20.4031 18.7819 20.0064 18.8745 19.5644L22.0015 4.21473C22.0722 3.8694 22.0478 3.51134 21.9308 3.17882C21.8139 2.8463 21.6087 2.55181 21.3374 2.32681ZM8.97967 14.122C8.84695 14.2544 8.75628 14.4231 8.71901 14.6069L8.42192 16.0482L7.67059 13.5633L11.5662 11.5345L8.97967 14.122ZM16.9358 19.205L12.3712 15.6687C12.1802 15.5213 11.9407 15.4513 11.7004 15.4726C11.4601 15.494 11.2367 15.605 11.0746 15.7837L10.2447 16.6989L10.5379 15.2739L17.3258 8.48602C17.4869 8.32398 17.5847 8.10973 17.6018 7.88191C17.6188 7.65408 17.5539 7.42766 17.4187 7.24347C17.2835 7.05928 17.087 6.92944 16.8646 6.87735C16.6421 6.82527 16.4084 6.85436 16.2055 6.95939L6.46405 12.0309L2.89426 10.7247L20.1241 3.83331L16.9358 19.205Z"/></svg>