<svg xmlns="http://www.w3.org/2000/svg" width="27" height="20" fill="none" viewBox="0 0 27 20"><rect width="27" height="20" fill="#A5A8FF" rx="3"/><g clip-path="url(#clip0)"><path fill="#fff" d="M19.0029 13.0778L17.0923 12.1226C16.9121 12.0324 16.8001 11.8512 16.8001 11.6496V10.9734C16.8459 10.9174 16.8941 10.8536 16.9439 10.7832C17.1917 10.4332 17.3903 10.0436 17.5347 9.6234C17.8169 9.494 18.0001 9.215 18.0001 8.9V8.1C18.0001 7.9074 17.9281 7.7208 17.8001 7.575V6.5112C17.8113 6.4012 17.8553 5.7464 17.3817 5.2062C16.9709 4.7376 16.3043 4.5 15.4001 4.5C14.4959 4.5 13.8293 4.7376 13.4185 5.206C12.9449 5.7462 12.9889 6.4012 13.0001 6.511V7.5748C12.8721 7.7206 12.8001 7.9072 12.8001 8.0998V8.8998C12.8001 9.1432 12.9107 9.3702 13.0995 9.5216C13.2827 10.247 13.6661 10.7936 13.8001 10.969V11.6308C13.8001 11.8244 13.6945 12.002 13.5247 12.0948L11.7405 13.068C11.1605 13.3844 10.8003 13.9912 10.8003 14.652V15.5H20.0003V14.6914C20.0001 14.0038 19.6179 13.3854 19.0029 13.0778Z"/><path fill="#fff" d="M11.5966 12.805L13.3808 11.8318C13.4542 11.7916 13.5 11.7146 13.5 11.631V11.0682C13.323 10.8218 13.0108 10.3258 12.8326 9.68622C12.62 9.47982 12.5 9.19882 12.5 8.90002V8.10002C12.5 7.87522 12.5704 7.65622 12.7 7.47182V6.52522C12.6932 6.44862 12.6852 6.27142 12.7192 6.04622C12.4438 5.95022 12.1374 5.90002 11.8 5.90002C9.7222 5.90002 9.6012 7.67102 9.6 7.70002V8.61582C9.4704 8.75702 9.4 8.92002 9.4 9.08182V9.77262C9.4 9.98842 9.4966 10.1896 9.6622 10.3256C9.8272 10.9476 10.233 11.4176 10.391 11.5826V12.1312C10.391 12.2886 10.3054 12.433 10.1568 12.5142L8.8262 13.3488C8.3166 13.6268 8 14.1602 8 14.7406V15.5H10.5V14.6524C10.5 13.8818 10.9202 13.174 11.5966 12.805Z"/></g><defs><clipPath id="clip0"><rect width="12" height="12" fill="#fff" transform="translate(8 4)"/></clipPath></defs></svg>