<svg xmlns="http://www.w3.org/2000/svg" width="15" height="13" fill="none" viewBox="0 0 15 13"><path fill="#0DFF16" d="M1.87499 3.82153H0.267823C0.195289 3.82153 0.132519 3.84792 0.0795112 3.90096C0.0264744 3.95402 0 4.01682 0 4.08939V5.69653C0 5.76903 0.0264744 5.83195 0.0795112 5.88487C0.132548 5.93773 0.195289 5.96438 0.267823 5.96438H1.87499C1.94753 5.96438 2.0103 5.93785 2.0633 5.88487C2.11634 5.83183 2.14282 5.76903 2.14282 5.69653V4.08939C2.14282 4.01682 2.11631 3.95402 2.0633 3.90096C2.0103 3.84801 1.94753 3.82153 1.87499 3.82153Z"/><path fill="#0DFF16" d="M1.87499 10.2501H0.267823C0.195289 10.2501 0.132519 10.2764 0.0795112 10.3295C0.0264744 10.3825 0 10.4453 0 10.5179V12.1251C0 12.1975 0.0264744 12.2602 0.0795112 12.3133C0.132548 12.3665 0.195289 12.3929 0.267823 12.3929H1.87499C1.94753 12.3929 2.0103 12.3664 2.0633 12.3133C2.11634 12.2603 2.14282 12.1975 2.14282 12.1251V10.5179C2.14282 10.4452 2.11631 10.3825 2.0633 10.3295C2.0103 10.2766 1.94753 10.2501 1.87499 10.2501Z"/><path fill="#0DFF16" d="M1.87499 7.03564H0.267823C0.195289 7.03564 0.132519 7.06232 0.0795112 7.11522C0.0265037 7.16811 0 7.23111 0 7.30356V8.91066C0 8.98331 0.0264744 9.04612 0.0795112 9.09909C0.132548 9.1521 0.195289 9.17846 0.267823 9.17846H1.87499C1.94753 9.17846 2.0103 9.15219 2.0633 9.09909C2.11634 9.04612 2.14282 8.98331 2.14282 8.91066V7.30356C2.14282 7.23111 2.11631 7.16831 2.0633 7.11522C2.0103 7.06224 1.94753 7.03564 1.87499 7.03564Z"/><path fill="#0DFF16" d="M1.87499 0.607178H0.267823C0.195289 0.607178 0.132519 0.633652 0.0795112 0.686689C0.0265037 0.739726 0 0.802496 0 0.87503V2.48217C0 2.55473 0.0264744 2.61747 0.0795112 2.67051C0.132548 2.72355 0.195289 2.75002 0.267823 2.75002H1.87499C1.94753 2.75002 2.0103 2.72364 2.0633 2.67051C2.11634 2.61747 2.14282 2.55473 2.14282 2.48217V0.87503C2.14282 0.802467 2.11631 0.739726 2.0633 0.686689C2.0103 0.633799 1.94753 0.607178 1.87499 0.607178Z"/><path fill="#0DFF16" d="M14.7316 10.2501H3.48169C3.40916 10.2501 3.34639 10.2764 3.29338 10.3295C3.24034 10.3826 3.21387 10.4453 3.21387 10.5179V12.1251C3.21387 12.1976 3.24034 12.2602 3.29338 12.3133C3.34641 12.3665 3.40907 12.3929 3.48169 12.3929H14.7316C14.8043 12.3929 14.867 12.3664 14.9201 12.3133C14.9731 12.2602 14.9995 12.1976 14.9995 12.1251V10.5179C14.9995 10.4453 14.9731 10.3826 14.9201 10.3295C14.867 10.2766 14.8043 10.2501 14.7316 10.2501Z"/><path fill="#0DFF16" d="M14.7316 7.03564H3.48169C3.40916 7.03564 3.34639 7.06232 3.29338 7.11522C3.24037 7.16811 3.21387 7.23111 3.21387 7.30356V8.91066C3.21387 8.98331 3.24034 9.04612 3.29338 9.09909C3.34641 9.1521 3.40907 9.17846 3.48169 9.17846H14.7316C14.8043 9.17846 14.867 9.15219 14.9201 9.09909C14.9731 9.04612 14.9995 8.98331 14.9995 8.91066V7.30356C14.9995 7.23111 14.9731 7.16831 14.9201 7.11522C14.867 7.06232 14.8043 7.03564 14.7316 7.03564Z"/><path fill="#0DFF16" d="M14.9201 0.686689C14.867 0.633769 14.8043 0.607178 14.7316 0.607178H3.48169C3.40916 0.607178 3.34639 0.633652 3.29338 0.686689C3.24037 0.739726 3.21387 0.802467 3.21387 0.87503V2.48217C3.21387 2.55473 3.24034 2.61747 3.29338 2.67051C3.34641 2.72355 3.40907 2.75002 3.48169 2.75002H14.7316C14.8043 2.75002 14.867 2.72364 14.9201 2.67051C14.9731 2.61747 14.9995 2.55473 14.9995 2.48217V0.87503C14.9995 0.802496 14.973 0.739726 14.9201 0.686689Z"/><path fill="#0DFF16" d="M14.7316 3.82153H3.48169C3.40916 3.82153 3.34639 3.84792 3.29338 3.90096C3.24034 3.95402 3.21387 4.01682 3.21387 4.08939V5.69653C3.21387 5.76903 3.24034 5.83183 3.29338 5.88487C3.34641 5.93773 3.40907 5.96438 3.48169 5.96438H14.7316C14.8043 5.96438 14.867 5.93785 14.9201 5.88487C14.9731 5.83183 14.9995 5.76903 14.9995 5.69653V4.08939C14.9995 4.01682 14.9731 3.95402 14.9201 3.90096C14.867 3.84801 14.8043 3.82153 14.7316 3.82153Z"/></svg>