<svg xmlns="http://www.w3.org/2000/svg" width="15" height="15" fill="none" viewBox="0 0 15 15"><g clip-path="url(#clip0)"><path fill="#0DFF16" d="M8.03582 11.7856C8.03754 10.4477 8.75199 9.21198 9.91081 8.54296V0.267905C9.91081 0.119933 9.79088 0 9.64291 0H2.67865V1.87499C2.67865 2.31879 2.31885 2.67859 1.87505 2.67859H6.10352e-05V14.732C0.00475308 14.8841 0.131438 15.0038 0.283529 14.9999H9.86412C8.73173 14.3247 8.03743 13.1041 8.03582 11.7856ZM5.08933 1.07139H8.30361C8.45158 1.07139 8.57152 1.19132 8.57152 1.33929C8.57152 1.48726 8.45158 1.60708 8.30361 1.60708H5.08933C4.94147 1.60708 4.82154 1.48726 4.82154 1.33929C4.82154 1.19132 4.94147 1.07139 5.08933 1.07139ZM5.08933 2.14289H8.30361C8.45158 2.14289 8.57152 2.26271 8.57152 2.41068C8.57152 2.55865 8.45158 2.67859 8.30361 2.67859H5.08933C4.94147 2.67859 4.82154 2.55865 4.82154 2.41068C4.82154 2.26271 4.94147 2.14289 5.08933 2.14289ZM5.08933 3.21428H8.30361C8.45158 3.21428 8.57152 3.33422 8.57152 3.48207C8.57152 3.63004 8.45158 3.74998 8.30361 3.74998H5.08933C4.94147 3.74998 4.82154 3.63004 4.82154 3.48207C4.82154 3.33422 4.94147 3.21428 5.08933 3.21428ZM1.07156 4.55358H8.83931C8.98728 4.55358 9.10721 4.67351 9.10721 4.82137C9.10721 4.96934 8.98728 5.08927 8.83931 5.08927H1.07156C0.923594 5.08927 0.80366 4.96934 0.80366 4.82137C0.80366 4.67351 0.923594 4.55358 1.07156 4.55358ZM1.07156 5.89287C1.21942 5.89287 1.33935 6.01269 1.33935 6.16066C1.33935 6.30863 1.21942 6.42856 1.07156 6.42856C0.923594 6.42856 0.80366 6.30863 0.80366 6.16066C0.80366 6.01269 0.923594 5.89287 1.07156 5.89287ZM1.07156 6.96426C1.21942 6.96426 1.33935 7.08419 1.33935 7.23205C1.33935 7.38002 1.21942 7.49995 1.07156 7.49995C0.923594 7.49995 0.80366 7.38002 0.80366 7.23205C0.80366 7.08419 0.923594 6.96426 1.07156 6.96426ZM1.07156 8.03565C1.21942 8.03565 1.33935 8.15558 1.33935 8.30355C1.33935 8.45141 1.21942 8.57134 1.07156 8.57134C0.923594 8.57134 0.80366 8.45141 0.80366 8.30355C0.80366 8.15558 0.923594 8.03565 1.07156 8.03565ZM1.07156 9.10704C1.21942 9.10704 1.33935 9.22697 1.33935 9.37494C1.33935 9.52291 1.21942 9.64285 1.07156 9.64285C0.923594 9.64285 0.80366 9.52291 0.80366 9.37494C0.80366 9.22697 0.923594 9.10704 1.07156 9.10704ZM4.82154 13.3928H4.28585V13.9285C4.28585 14.0764 4.16591 14.1963 4.01794 14.1963C3.86997 14.1963 3.75004 14.0764 3.75004 13.9285V13.3928H3.21434C3.06649 13.3928 2.94655 13.2729 2.94655 13.1249C2.94655 12.9769 3.06649 12.857 3.21434 12.857H3.75004V12.3213C3.75004 12.1735 3.86997 12.0535 4.01794 12.0535C4.16591 12.0535 4.28585 12.1735 4.28585 12.3213V12.857H4.82154C4.9694 12.857 5.08933 12.9769 5.08933 13.1249C5.08933 13.2729 4.9694 13.3928 4.82154 13.3928ZM6.69653 11.5178H1.33935V14.1963C1.33935 14.3443 1.21942 14.4642 1.07156 14.4642C0.923594 14.4642 0.80366 14.3443 0.80366 14.1963V11.2499C0.80366 11.102 0.923594 10.982 1.07156 10.982H6.69653C6.84439 10.982 6.96432 11.102 6.96432 11.2499C6.96432 11.3979 6.84439 11.5178 6.69653 11.5178ZM6.96432 9.64285H2.14295C1.99498 9.64285 1.87505 9.52291 1.87505 9.37494C1.87505 9.22697 1.99498 9.10704 2.14295 9.10704H6.96432C7.11229 9.10704 7.23222 9.22697 7.23222 9.37494C7.23222 9.52291 7.11229 9.64285 6.96432 9.64285ZM6.96432 8.57134H2.14295C1.99498 8.57134 1.87505 8.45141 1.87505 8.30355C1.87505 8.15558 1.99498 8.03565 2.14295 8.03565H6.96432C7.11229 8.03565 7.23222 8.15558 7.23222 8.30355C7.23222 8.45141 7.11229 8.57134 6.96432 8.57134ZM6.96432 7.49995H2.14295C1.99498 7.49995 1.87505 7.38002 1.87505 7.23205C1.87505 7.08419 1.99498 6.96426 2.14295 6.96426H6.96432C7.11229 6.96426 7.23222 7.08419 7.23222 7.23205C7.23222 7.38002 7.11229 7.49995 6.96432 7.49995ZM6.96432 6.42856H2.14295C1.99498 6.42856 1.87505 6.30863 1.87505 6.16066C1.87505 6.01269 1.99498 5.89287 2.14295 5.89287H6.96432C7.11229 5.89287 7.23222 6.01269 7.23222 6.16066C7.23222 6.30863 7.11229 6.42856 6.96432 6.42856Z"/><path fill="#0DFF16" d="M2.14295 1.87498V0.378784L0.378845 2.14289H1.87505C2.02302 2.14289 2.14295 2.02296 2.14295 1.87498Z"/><path fill="#0DFF16" d="M11.7858 8.57141C10.0106 8.57141 8.57153 10.0105 8.57153 11.7857C8.57153 13.5609 10.0106 15 11.7858 15C13.5609 15 15 13.5609 15 11.7857C14.9981 10.0113 13.5602 8.57336 11.7858 8.57141ZM13.5989 10.35L10.9203 13.5643C10.8721 13.6222 10.8017 13.6571 10.7264 13.6604H10.7143C10.6434 13.6604 10.5751 13.6322 10.5249 13.5819L9.72143 12.7783C9.61992 12.6733 9.62129 12.5062 9.72463 12.4029C9.82797 12.2995 9.99505 12.2981 10.1001 12.3997L10.6963 12.9959L13.1875 10.0068C13.2487 9.93325 13.3446 9.898 13.4389 9.91425C13.5332 9.9305 13.6118 9.99584 13.6449 10.0857C13.678 10.1755 13.6607 10.2761 13.5995 10.3497L13.5989 10.35Z"/></g><defs><clipPath id="clip0"><rect width="15" height="15" fill="#fff"/></clipPath></defs></svg>