<svg xmlns="http://www.w3.org/2000/svg" width="15" height="15" fill="none" viewBox="0 0 15 15"><path fill="#0DFF16" d="M0 12.1485C0 12.4016 0.205223 12.6069 0.458376 12.6069H5.53025V13.5815H2.17505C1.92189 13.5815 1.71667 13.7867 1.71667 14.0398C1.71667 14.293 1.92189 14.4982 2.17505 14.4982H11.6325C11.8856 14.4982 12.0909 14.293 12.0909 14.0398C12.0909 13.7867 11.8856 13.5815 11.6325 13.5815H8.27726V12.6069H13.3491C13.6023 12.6069 13.8075 12.4016 13.8075 12.1485V10.8878H0L0 12.1485Z"/><path fill="#0DFF16" d="M12.711 8.69545C11.5998 8.69545 10.58 8.11584 10.0006 7.20149L9.38365 7.21945C9.37342 7.21974 9.3632 7.21989 9.35297 7.21989C9.07052 7.21989 8.80545 7.10941 8.60655 6.90879C8.59694 6.89909 8.58754 6.88924 8.57837 6.87925L8.19487 6.88031C7.99958 7.10578 7.71989 7.23714 7.41974 7.24256L5.77128 7.26538V8.16353C5.77128 8.41669 5.56605 8.62191 5.3129 8.62191C5.05975 8.62191 4.85452 8.41669 4.85452 8.16353V2.67995C4.85452 2.4268 5.05975 2.22158 5.3129 2.22158C5.56605 2.22158 5.77128 2.4268 5.77128 2.67995V3.38357L10.2918 3.38512C10.878 2.70928 11.7208 2.30651 12.6338 2.2848C12.6593 2.28421 12.6847 2.28389 12.7101 2.28389C13.0894 2.28389 13.4596 2.3506 13.8075 2.47804V0.960207C13.8075 0.707054 13.6023 0.501831 13.3492 0.501831H0.458376C0.205223 0.50186 0 0.707084 0 0.960207V9.97108H13.8075V8.5042C13.461 8.62994 13.0913 8.69545 12.711 8.69545Z"/><path fill="#0DFF16" d="M12.656 3.20133C11.8498 3.22049 11.1468 3.65646 10.7542 4.30204L5.53125 4.30051V6.34422L7.40354 6.32603C7.44394 6.3253 7.48188 6.30643 7.50684 6.27467L7.75036 5.9648L9.22079 5.96085L9.219 6.16759C9.21833 6.24382 9.28114 6.30538 9.35737 6.30315L10.5583 6.2682C10.8769 7.14912 11.7205 7.77877 12.7114 7.77877C13.9939 7.77877 15.0301 6.72394 14.9997 5.4345C14.9702 4.17773 13.9127 3.17148 12.656 3.20133ZM14.1054 5.57706C14.0629 5.7887 13.872 5.9459 13.6559 5.9459C13.4651 5.9459 13.2882 5.82216 13.2246 5.64192C13.161 5.46154 13.2165 5.25465 13.3653 5.13307C13.514 5.0116 13.7268 4.99655 13.8914 5.09457C14.0557 5.19234 14.143 5.38962 14.1054 5.57706Z"/></svg>