<svg xmlns="http://www.w3.org/2000/svg" width="15" height="15" fill="none" viewBox="0 0 15 15"><g clip-path="url(#clip0)"><path fill="#0DFF16" d="M11.9117 2.64697H13.6765V5.29404H11.9117V2.64697Z"/><path fill="#0DFF16" d="M0.441162 3.97051C0.441162 4.70148 1.03372 5.29404 1.76469 5.29404H3.08822V2.64697H1.76469C1.03372 2.64697 0.441162 3.23953 0.441162 3.97051Z"/><path fill="#0DFF16" d="M10.147 5.29412H11.0294V0H5.29407V0.882353H10.147V5.29412Z"/><path fill="#0DFF16" d="M3.97058 1.76465H9.26471V5.29406H3.97058V1.76465Z"/><path fill="#0DFF16" d="M10.6772 10.147L11.2655 11.0294H14.5588V9.26465H11.2655L10.6772 10.147Z"/><path fill="#0DFF16" d="M0.441162 5.73413V12.5442C0.441162 13.814 1.40987 14.8618 2.64704 14.9874V6.17651H1.76469C1.26849 6.17651 0.810103 6.01172 0.441162 5.73413Z"/><path fill="#0DFF16" d="M3.52942 6.17651V15H4.41177V10.1471H5.29412V15H14.5588V11.9118H10.7933L9.61686 10.1471L10.7933 8.3824H14.5588V6.17651H3.52942Z"/></g><defs><clipPath id="clip0"><rect width="15" height="15" fill="#fff"/></clipPath></defs></svg>