<svg xmlns="http://www.w3.org/2000/svg" width="15" height="15" fill="none" viewBox="0 0 15 15"><path fill="#0DFF16" d="M9.91072 6.69638C9.91122 6.46898 10.0087 6.25258 10.1786 6.10147V1.60709C10.1786 1.45916 10.0587 1.33923 9.91072 1.33923H9.37501V9.37495C9.37501 9.81875 9.01524 10.1785 8.57144 10.1785H1.33929V10.7142C1.33929 10.8622 1.45922 10.9821 1.60715 10.9821H9.91072V6.69638Z"/><path fill="#0DFF16" d="M11.5179 2.94645C11.5179 2.79851 11.3979 2.67859 11.25 2.67859H10.7143V5.89287H11.5179V2.94645Z"/><path fill="#0DFF16" d="M1.87503 1.60718V0.378784L0.378784 1.87503H1.60718C1.75511 1.87503 1.87503 1.75511 1.87503 1.60718Z"/><path fill="#0DFF16" d="M8.83929 9.375V0.267857C8.83929 0.119924 8.71936 0 8.57143 0H2.41071V1.60714C2.41071 2.05094 2.05094 2.41071 1.60714 2.41071H0V9.375C0 9.52293 0.119924 9.64286 0.267857 9.64286H1.06741H1.07143H1.07545H8.57143C8.71936 9.64286 8.83929 9.52293 8.83929 9.375Z"/><path fill="#0DFF16" d="M9.91067 12.0536V11.5179H2.67853V12.0536C2.67853 12.2016 2.79845 12.3215 2.94638 12.3215H9.18746C9.28415 12.1556 9.46175 12.0536 9.6538 12.0536H9.91067Z"/><path fill="#0DFF16" d="M14.1965 12.3214C14.1965 12.4694 14.3164 12.5893 14.4643 12.5893L15.0021 12.5727L15.0022 12.5727H15.0035L15.0021 12.5727L15.0001 12.5746L12.5117 14.9264C12.4054 15.0258 12.2403 15.0258 12.134 14.9264L9.65363 12.5893H10.1786C10.3266 12.5893 10.4465 12.4694 10.4465 12.3214V9.10716V8.88517V8.57145V7.76787V7.23216V6.69645C10.4465 6.54851 10.5664 6.42859 10.7143 6.42859H13.9286C14.0766 6.42859 14.1965 6.54851 14.1965 6.69645V12.3214Z"/></svg>