<svg xmlns="http://www.w3.org/2000/svg" width="15" height="15" fill="none" viewBox="0 0 15 15"><path fill="#0DFF16" fill-rule="evenodd" d="M7.5 0C3.35786 0 0 3.35786 0 7.5C0 11.6421 3.35786 15 7.5 15C11.6421 15 15 11.6421 15 7.5C15 3.35786 11.6421 0 7.5 0ZM11.1075 4.58695L8.18712 7.50739L11.1075 10.4278C11.2975 10.6178 11.2975 10.9249 11.1075 11.1149C11.0127 11.2096 10.8883 11.2572 10.7639 11.2572C10.6396 11.2572 10.5152 11.2096 10.4204 11.1149L7.49996 8.19445L4.57961 11.1149C4.48485 11.2096 4.36046 11.2572 4.23607 11.2572C4.11168 11.2572 3.98721 11.2096 3.89254 11.1149C3.70249 10.9249 3.70249 10.6178 3.89254 10.4278L6.81289 7.50739L3.89254 4.58695C3.70249 4.39699 3.70249 4.08984 3.89254 3.89988C4.0825 3.70992 4.38955 3.70992 4.57961 3.89988L7.49996 6.82032L10.4204 3.89988C10.6104 3.70992 10.9175 3.70992 11.1075 3.89988C11.2975 4.08984 11.2975 4.39699 11.1075 4.58695Z" clip-rule="evenodd"/></svg>